<svg xmlns="http://www.w3.org/2000/svg" width="642.999" height="447.57" viewBox="0 0 642.999 447.57"><g transform="translate(0 0)"><path d="M891.623,313.021H308.48a29.962,29.962,0,0,1-29.928-29.928V255.885a29.962,29.962,0,0,1,29.928-29.928H891.623a29.962,29.962,0,0,1,29.928,29.928v27.207A29.962,29.962,0,0,1,891.623,313.021ZM308.48,227.771a28.146,28.146,0,0,0-28.114,28.114v27.207a28.146,28.146,0,0,0,28.114,28.114H891.623a28.146,28.146,0,0,0,28.114-28.114V255.885a28.146,28.146,0,0,0-28.114-28.114Z" transform="translate(-278.552 -225.957)" fill="#3f3d56"/><rect width="421.714" height="34.463" rx="17.231" transform="translate(57.135 26.3)" fill="#e6e6e6"/><rect width="421.714" height="34.463" rx="17.231" transform="translate(107.922 177.43)" fill="#f20893"/><rect width="421.714" height="34.463" rx="17.231" transform="translate(107.922 287.004)" fill="#009fe3" opacity="0.5"/><rect width="421.714" height="34.463" rx="17.231" transform="translate(107.922 396.578)" fill="#e6e6e6"/><path d="M864.864,288.1a2.714,2.714,0,0,1-3.78.667l-14.807-10.3a2.714,2.714,0,0,1,3.113-4.446l14.807,10.3a2.714,2.714,0,0,1,.667,3.78Z" transform="translate(-278.552 -225.957)"/><path d="M848.054,276.4a19.267,19.267,0,1,1-4.732-26.833A19.267,19.267,0,0,1,848.054,276.4ZM820.435,257.06a14.45,14.45,0,1,0,20.125-3.549,14.45,14.45,0,0,0-20.125,3.549Z" transform="translate(-278.552 -225.957)"/><path d="M874.846,454.289H325.257a.907.907,0,0,1,0-1.814H874.846a.907.907,0,1,1,0,1.814Z" transform="translate(-278.552 -225.957)" fill="#3f3d56"/><path d="M874.846,563.909H325.257a.907.907,0,0,1,0-1.814H874.846a.907.907,0,0,1,0,1.814Z" transform="translate(-278.552 -225.957)" fill="#3f3d56"/><path d="M874.846,673.527H325.257a.907.907,0,0,1,0-1.814H874.846a.907.907,0,0,1,0,1.814Z" transform="translate(-278.552 -225.957)" fill="#3f3d56"/><line x2="0.164" y2="12.162" transform="matrix(-0.985, 0.174, -0.174, -0.985, 59.83, 24.371)" fill="none" stroke="#e6e6e6" stroke-width="5"/><line x1="0.307" y2="12.978" transform="translate(52.418 36.018) rotate(70)" fill="none" stroke="#e6e6e6" stroke-width="5"/><line x2="0.478" y2="12.612" transform="translate(52.523 28.661) rotate(135)" fill="none" stroke="#e6e6e6" stroke-width="5"/></g></svg>