<svg xmlns="http://www.w3.org/2000/svg" width="1934.907" height="356.101" viewBox="0 0 1934.907 356.101"><g transform="translate(0.05 -445.043)"><path d="M1919.95,599.385H0V364.759Q32.36,257.27,154.835,285.671q90.991-56.021,154.835,23.837,93.159.226,92.9,81.976,22.193-62.045,92.9-42.568,47.276-94.4,154.835-52.907,84.888-61.389,154.835,13.113,84.45-61.774,154.835,12.355,104.552-44.13,154.835,47.618,43.147-98.022,154.835-60.154,64.14-25.23,92.9,31.062,47.715-94.014,154.835-52.137,97.481-50.336,154.835,35.218Q1765.425,269,1827.05,350.819q64.927-24.551,92.9,32.433Z" transform="translate(0 182.469)" fill="#7495e9"/><path d="M1919.95,594.433H.015V463.595q-2.544-85.453,94.423-87.7,36.956-50.643,94.423-18.075,99.184-51.279,157.372,36.127,97.243-52.989,157.372,32.718,47.146-97.137,157.372-55.578Q725.7,344.915,755.4,401.949q99.6-50.909,157.372,36.879Q953.426,335.97,1070.143,371.8q65.323-25.645,94.423,31.921,67.342-23.865,94.423,35.469,37.389-105.736,157.372-72.787,105.151-46.009,157.372,46.656,72.627-19.208,94.423,44.784,9.508-74.832,94.423-66.453,87.118-61.9,157.372,14.874Z" transform="translate(0 187.422)" fill="#bad2f3"/><path d="M1934.857,592.652H0V466.51q73.048-75.423,151.161-4.89,38.269-50.622,90.7-13.659,37.009-51.839,90.7-16.116,71.335-18.695,90.7,50.185,61.132-86.929,151.161-27.9,71.348-18.682,90.7,50.221,54.834-34.628,90.7,18.317,44.6-102.887,151.161-59.818,66.926-81.334,151.161-16.712,108.962-40.758,151.161,64.452,61.094-28.583,90.7,30.42,15.57-130.922,151.161-115.889,51.836-37.523,90.7,12.528,89.034-59.988,151.161,25.98,53.07-36.331,90.7,14.9,104.691-44.869,151.161,56.217Z" transform="translate(0 189.203)" fill="#72abf3"/><path d="M1919.95,570.67H0V496.807q108.089-41.949,157.373,50.042,62.438-27.226,94.424,25.92,70.4-74.03,157.373-14.11Q507.554,508.45,566.543,592.2q66.346-77.48,157.373-21.008,2.793-77.982,94.424-75.6,86.24-60.546,157.373,12.859,114.371-36.6,157.373,60.747,66.713-77.178,157.373-20.394,38.858-47.3,94.424-14.21,79.342-12.837,94.424,54.7,38.071-47.966,94.424-15.561,33.822-51.594,94.424-22.805,67.4-23.006,94.424,34.359,24.721-112.91,157.373-91.868Z" transform="translate(0 208.942)" fill="#d2e8fd"/></g></svg>