<svg xmlns="http://www.w3.org/2000/svg" width="456" height="79" viewBox="0 0 456 79">
    <g transform="translate(-732 -5955)">
        <g transform="translate(487 5325)">
            <path d="M393.816,79H39.683A39.7,39.7,0,0,1,3.118,54.875a39.347,39.347,0,0,1,8.5-43.306A39.649,39.649,0,0,1,39.683,0h357.45a43.373,43.373,0,0,0-27.715,40.218A42.8,42.8,0,0,0,393.811,79l.005,0h0ZM456,39.688h0a42.679,42.679,0,0,0-3.146-15.634A39.083,39.083,0,0,1,456,39.5c0,.055,0,.11,0,.165Z"
                  transform="translate(245 630)" fill="rgba(108,99,255,0.8)"/>
            <text transform="translate(443 682)" fill="#fff" font-size="36" font-family="Poppins-Medium, Poppins"
                  font-weight="500">
                <tspan x="-85.374" y="0">Rejoindre</tspan>
            </text>
        </g>
        <circle cx="39.5" cy="39.5" r="39.5" transform="translate(1104 5955)" fill="#f20893"/>
        <path d="M4,1.317,29.075,20.934,4,40.5l1.08,1.362L31.911,20.934,5.062,0Z"
              transform="translate(1125.544 5973.566)" fill="#fff" fill-rule="evenodd"/>
    </g>
</svg>