<svg xmlns="http://www.w3.org/2000/svg" width="60" height="59.987" viewBox="0 0 60 59.987">
  <path id="instagram-brands" d="M29.932,46.438a15.38,15.38,0,1,0,15.38,15.38A15.355,15.355,0,0,0,29.932,46.438Zm0,25.379a10,10,0,1,1,10-10,10.017,10.017,0,0,1-10,10Zm19.6-26.008a3.587,3.587,0,1,1-3.587-3.587A3.579,3.579,0,0,1,49.528,45.809ZM59.714,49.45c-.228-4.805-1.325-9.062-4.846-12.569s-7.764-4.6-12.569-4.846c-4.953-.281-19.8-.281-24.75,0-4.792.228-9.049,1.325-12.569,4.832S.377,44.631.136,49.437c-.281,4.953-.281,19.8,0,24.75.228,4.805,1.325,9.062,4.846,12.569s7.764,4.6,12.569,4.846c4.953.281,19.8.281,24.75,0,4.805-.228,9.062-1.325,12.569-4.846s4.6-7.764,4.846-12.569C60,69.234,60,54.4,59.714,49.45Zm-6.4,30.05a10.123,10.123,0,0,1-5.7,5.7c-3.949,1.566-13.318,1.2-17.682,1.2s-13.747.348-17.682-1.2a10.123,10.123,0,0,1-5.7-5.7c-1.566-3.949-1.2-13.318-1.2-17.682s-.348-13.747,1.2-17.682a10.123,10.123,0,0,1,5.7-5.7c3.949-1.566,13.318-1.2,17.682-1.2s13.747-.348,17.682,1.2a10.123,10.123,0,0,1,5.7,5.7c1.566,3.949,1.2,13.318,1.2,17.682S54.882,75.565,53.316,79.5Z" transform="translate(0.075 -31.825)" fill="#919191"/>
</svg>
