<svg xmlns="http://www.w3.org/2000/svg" width="51.859" height="51.859" viewBox="0 0 51.859 51.859">
  <path id="linkedin-brands" d="M48.155,32H3.693A3.72,3.72,0,0,0,0,35.739V80.12a3.72,3.72,0,0,0,3.693,3.739H48.155a3.73,3.73,0,0,0,3.7-3.739V35.739A3.73,3.73,0,0,0,48.155,32ZM15.673,76.45H7.987V51.7h7.7V76.45ZM11.83,48.322a4.457,4.457,0,1,1,4.457-4.457A4.459,4.459,0,0,1,11.83,48.322ZM44.485,76.45H36.8V64.412c0-2.871-.058-6.563-3.994-6.563-4.005,0-4.619,3.125-4.619,6.355V76.45H20.5V51.7h7.374v3.38h.1a8.1,8.1,0,0,1,7.281-3.994c7.779,0,9.226,5.128,9.226,11.8Z" transform="translate(0 -32)" fill="#919191"/>
</svg>
