<svg xmlns="http://www.w3.org/2000/svg" width="738.65" height="113.959" viewBox="0 0 738.65 113.959"><g transform="translate(-78.484 -425.449)"><path d="M114.242,543.542a52.417,52.417,0,0,1-6.919.487c-8.649,0-15.628-2.512-20.81-7.518-8.182-7.893-8.162-18.725-7.985-21.665V442.16H98.555v73.665l-.039.276c-.053,1.151.2,4.394,1.973,6.044s5.781,2.263,11.1,1.546Z" transform="translate(0 -5.72)" fill="#009fe3" opacity="0.75"/><circle cx="10.004" cy="10.004" r="10.004" transform="translate(101.423 536.202) rotate(-80.78)" fill="#1b1464"/><path d="M78.55,436.951a10,10,0,1,1,10,10A10,10,0,0,1,78.55,436.951Z" transform="translate(-0.023 -0.51)" fill="#f20893"/><path d="M254.154,472.816a10,10,0,0,1,10,9.978v61.688a10,10,0,0,1-20.008,0V482.794a10,10,0,0,1,10-10Z" transform="translate(-56.703 -16.204)" fill="#3fa9f5"/><path d="M163.51,542.33c0,27.559,30.308,44.515,54.473,31.137a9.957,9.957,0,0,1-1.434-5.157V542.33c0,17.831-26.8,22-32.321,4.6a15.062,15.062,0,0,1-.717-4.6Z" transform="translate(-29.102 -40.005)" fill="#009fe3" opacity="0.8"/><path d="M245.577,568.261a36.4,36.4,0,0,0,12.234-11.01,35.325,35.325,0,0,0,4.65-9.412,34.945,34.945,0,0,0,1.677-10.714,10,10,0,1,0-20.008,0V563.1a9.958,9.958,0,0,0,1.434,5.157" transform="translate(-56.696 -34.799)" fill="#6c63ff" opacity="0.8"/><rect width="36.589" height="19.962" transform="translate(134.216 502.192) rotate(-89.26)" fill="#009fe3" opacity="0.8"/><path d="M173.512,546.988a10,10,0,0,0,10-10h0a10,10,0,1,0-20,0h0a10,10,0,0,0,10,10" transform="translate(-29.101 -34.666)" fill="#6c63ff" opacity="0.8"/><path d="M163.51,482.734a10,10,0,1,1,2.928,7.076,10,10,0,0,1-2.928-7.076Z" transform="translate(-29.102 -16.183)" fill="#f20893"/><path d="M244.15,482.734a10,10,0,1,1,2.928,7.076,10,10,0,0,1-2.928-7.076Z" transform="translate(-56.703 -16.183)" fill="#f20893"/><rect width="20.001" height="90.7" transform="translate(284.757 437.019)" fill="#009fe3" opacity="0.8"/><path d="M359.809,478.548a39.819,39.819,0,0,0-21.514-6.288,40.292,40.292,0,0,0-33.636,18.278c-17.916,27.177,1.079,64.247,33.649,64.247a39.839,39.839,0,0,0,22.409-6.886Zm-21.5,56.229h0c-11.3,0-20.5-9.478-20.5-21.258,0-20.929,26.145-29.124,37.444-11.971,9.287,14.1-.526,33.228-16.943,33.228" transform="translate(-75.052 -16.022)" fill="#009fe3" opacity="0.8"/><path d="M392.077,481.82c0,71.034-.349,66.614.908,69.351,24.553-16.614,23.954-53.447-.908-69.351" transform="translate(-107.32 -19.294)" fill="#6c63ff" opacity="0.8"/><path d="M392.1,437.791a10,10,0,1,1,10,10,10,10,0,0,1-10-10Z" transform="translate(-107.343 -0.798)" fill="#f20893"/><path d="M392.1,575.791a10,10,0,1,1,10,10,10,10,0,0,1-10-10Z" transform="translate(-107.343 -48.032)" fill="#1b1464"/><rect width="20.001" height="60.432" transform="translate(322.899 466.886)" fill="#009fe3" opacity="0.8"/><path d="M450.09,437.134a10,10,0,1,1,10,10A10,10,0,0,1,450.09,437.134Z" transform="translate(-127.191 -0.575)" fill="#f20893"/><path d="M450.09,575.124a10,10,0,1,1,10,10A10,10,0,0,1,450.09,575.124Z" transform="translate(-127.191 -47.806)" fill="#1b1464"/><path d="M450.09,483.244a10,10,0,1,1,10,10,10,10,0,0,1-10-10Z" transform="translate(-127.191 -16.358)" fill="#f20893"/><path d="M564.2,445.76c-5.314-.717-9.156-.053-11.1,1.546-2.144,1.776-1.927,6.979-1.927,6.979v73.04h-20V454.633c0-2.933-.2-13.773,7.985-21.666,6.5-6.275,15.825-8.636,27.73-7.031L564.2,445.76" transform="translate(-154.943 0)" fill="#009fe3" opacity="0.8"/><path d="M556.748,477.738H542.936v20h13.812a10,10,0,1,0,0-20m-33.82,0h-6.091a10,10,0,0,0,0,20h6.091v-20" transform="translate(-146.701 -17.896)" fill="#009fe3" opacity="0.8"/><path d="M551.171,477.74h-20v20h20v-20" transform="translate(-154.943 -17.898)" fill="#6c63ff" opacity="0.8"/><circle cx="10.004" cy="10.004" r="10.004" transform="translate(376.221 517.314)" fill="#f20893"/><path d="M567.39,487.791a10,10,0,1,1,10,10,10,10,0,0,1-10-10Z" transform="translate(-167.34 -17.912)" fill="#2e3192"/><path d="M568.22,436.054a10,10,0,1,1,2.928,7.076A10,10,0,0,1,568.22,436.054Z" transform="translate(-167.624 -0.206)" fill="#f20893"/><rect width="20.001" height="60.432" transform="translate(438.724 466.886)" fill="#29abe2"/><path d="M626.19,437.134a10,10,0,1,1,10,10A10,10,0,0,1,626.19,437.134Z" transform="translate(-187.466 -0.575)" fill="#1b1464"/><circle cx="10.004" cy="10.004" r="10.004" transform="translate(438.724 517.314)" fill="#009fe3"/><path d="M626.19,483.244a10,10,0,1,1,10,10,10,10,0,0,1-10-10Z" transform="translate(-187.466 -16.358)" fill="#6c63ff"/><path d="M692.794,552.933a10,10,0,0,1-10-10V481.234a10,10,0,1,1,20.008,0v61.695A10,10,0,0,1,692.794,552.933Z" transform="translate(-206.838 -15.67)" fill="#009fe3" opacity="0.8"/><path d="M765.513,507.37c0-27.559-30.308-44.515-54.473-31.137a9.932,9.932,0,0,1,1.434,5.15V507.37c0-17.831,26.8-22,32.321-4.637a15.124,15.124,0,0,1,.717,4.637Z" transform="translate(-216.508 -15.786)" fill="#009fe3" opacity="0.8"/><path d="M701.348,478.6a36.425,36.425,0,0,0-12.234,11.017,35.385,35.385,0,0,0-4.663,9.405,34.96,34.96,0,0,0-1.651,10.754,10,10,0,1,0,20.008,0v-26.02a9.978,9.978,0,0,0-1.46-5.157" transform="translate(-206.842 -18.192)" fill="#6c63ff" opacity="0.8"/><rect width="19.962" height="36.589" transform="translate(529.004 491.551)" fill="#009fe3" opacity="0.8"/><path d="M773.446,510.74a10,10,0,0,0-10,10.037h0a10,10,0,1,0,20,0h0a10,10,0,0,0-10-10" transform="translate(-234.445 -29.193)" fill="#1b1464"/><path d="M763.45,575.124a10,10,0,1,1,10,10,10,10,0,0,1-10-10Z" transform="translate(-234.446 -47.806)" fill="#f20893"/><circle cx="10.004" cy="10.004" r="10.004" transform="translate(475.958 517.314)" fill="#f20893"/><rect width="20.001" height="90.7" transform="translate(626.314 437.019)" fill="#009fe3" opacity="0.8"/><path d="M879.108,478.548a39.846,39.846,0,0,0-21.521-6.288,40.279,40.279,0,0,0-33.63,18.278c-17.916,27.177,1.072,64.247,33.643,64.247A39.807,39.807,0,0,0,880.01,547.9ZM857.6,534.777h0c-11.3,0-20.5-9.478-20.5-21.258,0-20.929,26.145-29.124,37.451-11.971,9.287,14.1-.533,33.228-16.95,33.228" transform="translate(-252.794 -16.022)" fill="#009fe3" opacity="0.8"/><path d="M911.377,481.82c0,71.034-.349,66.614.9,69.351,24.553-16.614,23.955-53.447-.9-69.351" transform="translate(-285.062 -19.294)" fill="#6c63ff" opacity="0.8"/><path d="M911.4,437.791a10,10,0,1,1,10,10,10,10,0,0,1-10-10Z" transform="translate(-285.086 -0.798)" fill="#f20893"/><circle cx="10.004" cy="10.004" r="10.004" transform="translate(626.308 517.775)" fill="#2e3192"/><path d="M985.1,535h0a25.349,25.349,0,0,0,1.881,9.866,18.271,18.271,0,0,0,10.247,10.129,26.631,26.631,0,0,0,10,1.769h0a22.364,22.364,0,0,0,7.958-1.579,23.573,23.573,0,0,0,7.123-4.315l13.352,14.891a43.259,43.259,0,0,1-13.227,8.064,42.232,42.232,0,0,1-15.24,2.94h0a47.558,47.558,0,0,1-14.97-2.3,39.328,39.328,0,0,1-12.379-6.689,37.493,37.493,0,0,1-6.334-6.5A39.781,39.781,0,0,1,967.8,550.8a45.951,45.951,0,0,1-2.7-15.8Z" transform="translate(-303.465 -37.497)" fill="#009fe3" opacity="0.8"/><path d="M1005.274,471.483h-.052c-21.909,0-40.121,18.758-40.121,41.785h20c0-12.1,9.353-21.777,20.133-21.777,8.866,0,15.43,4.551,18.614,11.773l22.021,9.991c0-23.31-16.851-41.785-40.595-41.785" transform="translate(-303.466 -15.752)" fill="#009fe3" opacity="0.8"/><path d="M975.1,519.81a10,10,0,0,0-10,9.984h0a10,10,0,1,0,10-10" transform="translate(-303.466 -32.291)" fill="#f20893"/><path d="M1037.33,519.818h-22.58a10,10,0,1,0,0,20h34.6Z" transform="translate(-316.948 -32.299)" fill="#009fe3" opacity="0.75"/><path d="M1066.437,519.81H1054.42l.079.171a24.881,24.881,0,0,1,1.934,9.826,10,10,0,0,0,10,10h0a10,10,0,0,0,10-10.017h0a10,10,0,0,0-10-10" transform="translate(-334.038 -32.291)" fill="#6c63ff"/><circle cx="10.004" cy="10.004" r="10.004" transform="translate(715.555 510.849)" fill="#3ca4dd"/><path d="M1163.948,476.867c-36.32-13-52.743,11.648-52.75,32.334a10,10,0,1,0,20,0h0c0-2.631,1.4-12.99,9.208-15.391,5.091-1.546,11.773.086,16.8,1.888Z" transform="translate(-353.47 -16.361)" fill="#3ca4dd"/><path d="M1171.1,487.864a10,10,0,1,1,2.928,7.076A10,10,0,0,1,1171.1,487.864Z" transform="translate(-373.974 -17.939)" fill="#6c63ff"/><path d="M1131.2,543.893V483.217a10,10,0,0,0-20,0v60.675h20" transform="translate(-353.472 -16.436)" fill="#6c63ff" opacity="0.8"/><path d="M1129.082,478.94c-12.155,6.413-17.877,20-17.884,32.229a10,10,0,1,0,20,0h0V485.1a9.945,9.945,0,0,0-2.118-6.156" transform="translate(-353.47 -18.309)" fill="#009fe3" opacity="0.75"/><circle cx="10.004" cy="10.004" r="10.004" transform="translate(757.728 517.518)" fill="#f20893"/></g></svg>