<svg id="Calque_1" data-name="Calque 1" xmlns="http://www.w3.org/2000/svg" viewBox="0 0 987 118"><defs><style>.cls-1{fill:#3ca4dd;}.cls-2{fill:#009fe3;}.cls-2,.cls-3{opacity:0.8;isolation:isolate;}.cls-3,.cls-8{fill:#6c63ff;}.cls-4{fill:#1b1464;}.cls-5{fill:#f20893;}.cls-6{fill:#3fa9f5;}.cls-7{fill:#3ea4dd;}</style></defs><polyline class="cls-1" points="3.68 35.11 3.68 108.66 19.9 108.66 19.9 35.11"/><path class="cls-2" d="M36.58,26.55A32.58,32.58,0,0,0,19.1,31.6a8,8,0,0,1,.8,3.51V87.58a32.79,32.79,0,1,0,16.68-61m0,49.47A16.68,16.68,0,1,1,53.26,59.37h0A16.67,16.67,0,0,1,36.58,76"/><path class="cls-3" d="M19.1,31.6a32.8,32.8,0,0,0,.8,56V35.11a8,8,0,0,0-.8-3.51"/><path class="cls-4" d="M3.68,108.66a8.11,8.11,0,1,1,8.11,8.11h0A8.11,8.11,0,0,1,3.68,108.66Z"/><path class="cls-5" d="M3.68,35.06a8.11,8.11,0,1,1,8.11,8.11h0A8.11,8.11,0,0,1,3.68,35.06Z"/><path class="cls-2" d="M126.85,27.68C97.4,17.14,84.09,37.13,84.08,53.9a8.11,8.11,0,0,0,16.22,0h0c0-2.14,1.13-10.54,7.46-12.48,4.13-1.25,9.55.07,13.63,1.53Z"/><path class="cls-5" d="M116,35.32a8.11,8.11,0,1,1,8.11,8.11h0A8.11,8.11,0,0,1,116,35.32Z"/><path class="cls-2" d="M100.3,82V32.8a8.11,8.11,0,0,0-16.22,0h0V82H100.3"/><path class="cls-3" d="M98.58,27.78C88.72,33,84.08,44,84.08,53.9a8.11,8.11,0,0,0,16.22,0h0V32.77a8,8,0,0,0-1.72-5"/><path class="cls-2" d="M161.5,57.69h0a20.51,20.51,0,0,0,1.52,8,14.92,14.92,0,0,0,8.31,8.21,21.62,21.62,0,0,0,8.11,1.43h0a18,18,0,0,0,6.45-1.28,18.8,18.8,0,0,0,5.78-3.5L202.5,82.63a35.08,35.08,0,0,1-10.73,6.54,34.21,34.21,0,0,1-12.36,2.38h0a38.76,38.76,0,0,1-12.14-1.86,32.09,32.09,0,0,1-10-5.43A30.17,30.17,0,0,1,152.13,79a32.28,32.28,0,0,1-4.63-8.49,36.93,36.93,0,0,1-2.21-12.83Z"/><path class="cls-2" d="M177.85,23.81h0c-17.77,0-32.54,15.21-32.53,33.88H161.5c0-9.81,7.58-17.66,16.32-17.66,7.19,0,12.51,3.7,15.1,9.55l17.85,8.11c0-18.9-13.66-33.88-32.92-33.88"/><path class="cls-3" d="M153.39,49.58a8.11,8.11,0,0,0-8.11,8.11h0a8.11,8.11,0,1,0,8.11-8.11h0"/><path class="cls-6" d="M192.92,49.58H174.6a8.11,8.11,0,1,0,0,16.22h28.06Z"/><path class="cls-5" d="M202.66,49.58h-9.74l.06.14a20.13,20.13,0,0,1,1.57,8,8.11,8.11,0,0,0,8.11,8.11h0a8.11,8.11,0,0,0,8.11-8.11h0a8.11,8.11,0,0,0-8.11-8.11"/><path class="cls-1" d="M189,76.61a8.11,8.11,0,1,1,8.11,8.11h0A8.11,8.11,0,0,1,189,76.61Z"/><path class="cls-2" d="M254.06,7.34V67c0,6.32,4.13,7.42,10.48,6.49l2.36,16.05c-18.66,2.74-29-7.9-29.06-23V7.34"/><path class="cls-2" d="M265.27,22.67H254.06V38.89h11.21Zm-27.43,0h-4.93a8.11,8.11,0,1,0,0,16.22h4.93V22.67"/><polyline class="cls-3" points="254.06 22.67 237.84 22.67 237.84 38.89 254.06 38.89 254.06 22.67"/><path class="cls-1" d="M237.84,7.34A8.11,8.11,0,1,1,246,15.45h0A8.12,8.12,0,0,1,237.84,7.34Z"/><path class="cls-4" d="M257.16,30.78a8.11,8.11,0,1,1,8.11,8.11h0A8.11,8.11,0,0,1,257.16,30.78Z"/><path class="cls-6" d="M257.61,81.51a8.11,8.11,0,1,1,8.11,8.11h0A8.11,8.11,0,0,1,257.61,81.51Z"/><path class="cls-2" d="M405.29,31.13a32.3,32.3,0,0,0-20-7V40.35A16.41,16.41,0,0,1,399,47.91c7.53,11.42-.42,26.94-13.74,26.94V91.07a32.37,32.37,0,0,0,20.1-7c.33-.26.65-.53,1-.8V32C406,31.68,405.64,31.4,405.29,31.13Z"/><path class="cls-7" d="M421.32,32.9l-16-1.77h0a7.36,7.36,0,0,0-.22,1.75c0,52.79-.11,49.84.27,51.15h0l15.94-2V32.9Z"/><path class="cls-3" d="M405.29,31.13a8.72,8.72,0,0,0-.19,1.77c0,53.13-.1,49.8.24,51.17a33.84,33.84,0,0,0,5.34-47.56,34.28,34.28,0,0,0-5.39-5.38"/><path class="cls-2" d="M385.23,74.85h0c-9.18,0-16.62-7.7-16.63-17.23S376,40.38,385.23,40.38V24.16c-23.58,0-39.31,24.54-30.28,46.42a32.86,32.86,0,0,0,30.28,20.49Z"/><path class="cls-3" d="M385.23,24.16h0a8.11,8.11,0,0,0,0,16.22h0a8.11,8.11,0,0,0,0-16.22m0,50.69h0a8.11,8.11,0,0,0,0,16.22h0a8.11,8.11,0,0,0,0-16.22"/><path class="cls-5" d="M405.1,32.9A8.11,8.11,0,1,1,413.21,41h0A8.11,8.11,0,0,1,405.1,32.9Z"/><path class="cls-6" d="M405.1,82.12a8.11,8.11,0,1,1,8.11,8.11h0A8.11,8.11,0,0,1,405.1,82.12Z"/><path class="cls-2" d="M488.62,110.74c10.28,1.39,20-1.06,25.4-9.85A23.34,23.34,0,0,0,517.58,90V33H501.36c0,58.09.08,55.43-.2,56.83-.68,3.35-2.46,5.92-10.37,4.85Z"/><path class="cls-2" d="M501.39,8.4a8.11,8.11,0,1,1,8.11,8.11h0A8.11,8.11,0,0,1,501.39,8.4Z"/><path class="cls-6" d="M481.59,102.7a8.11,8.11,0,1,1,8.11,8.11h0A8.12,8.12,0,0,1,481.59,102.7Z"/><circle class="cls-1" cx="509.5" cy="32.99" r="8.11"/><path class="cls-2" d="M585.55,58.15a17.06,17.06,0,0,0-3.07-9.82,18.11,18.11,0,0,0-8-6.45,18.5,18.5,0,0,0-7.16-1.41,19.11,19.11,0,0,0-5.47.8,18.43,18.43,0,0,0-4.79,2.26,17.84,17.84,0,0,0-6.58,7.8,17.17,17.17,0,0,0-1.41,6.82H532.84A33,33,0,0,1,534.4,48a33.64,33.64,0,0,1,4.37-8.9A34.63,34.63,0,0,1,567.3,24.23h0A34.76,34.76,0,0,1,586.5,30,34.06,34.06,0,0,1,599,44.89a33.43,33.43,0,0,1,2.74,13.26Z"/><path class="cls-7" d="M601.77,58.15a8.11,8.11,0,0,1-16.22,0h0c0,9.84-8.23,17.68-18.25,17.68a18,18,0,0,1-18.25-17.68h0a8.11,8.11,0,1,1-16.22,0v0c0,18.67,15.4,33.9,34.47,33.9h0c19,0,34.47-15.18,34.47-33.9"/><path class="cls-4" d="M541,50a8.11,8.11,0,0,0-8.11,8.11h0a8.11,8.11,0,1,0,16.22,0v0h0A8.12,8.12,0,0,0,541,50"/><path class="cls-4" d="M593.66,50a8.11,8.11,0,0,0-8.11,8.11h0a8.11,8.11,0,0,0,16.22,0h0A8.11,8.11,0,0,0,593.66,50"/><path class="cls-2" d="M671.27,24.52a8.11,8.11,0,0,1,8.11,8.11v50a8.11,8.11,0,0,1-16.22,0v-50A8.11,8.11,0,0,1,671.27,24.52Z"/><path class="cls-2" d="M620.15,61.59c0,22.34,24.58,36.09,44.17,25.25a8.1,8.1,0,0,1-1.16-4.18V61.59c0,14.46-21.73,17.84-26.21,3.76a12.61,12.61,0,0,1-.58-3.76Z"/><path class="cls-3" d="M664.32,86.84a29.6,29.6,0,0,0,9.92-8.93,28.29,28.29,0,0,0,5.14-16.32,8.11,8.11,0,0,0-16.22,0V82.66a8.1,8.1,0,0,0,1.16,4.18"/><path class="cls-2" d="M636.34,31.92a8.1,8.1,0,0,0-16.15,0h0v29.7h16.19V31.92Z"/><path class="cls-5" d="M628.26,69.7a8.11,8.11,0,0,0,8.11-8.11h0a8.11,8.11,0,0,0-16.22,0h0a8.11,8.11,0,0,0,8.11,8.11"/><path class="cls-4" d="M663.16,32.58a8.11,8.11,0,1,1,8.11,8.11h0A8.11,8.11,0,0,1,663.16,32.58Z"/><path class="cls-2" d="M715.21,57.69h0a20.52,20.52,0,0,0,1.53,8,14.8,14.8,0,0,0,8.31,8.21,21.42,21.42,0,0,0,8.11,1.43h0a18,18,0,0,0,6.45-1.28,19,19,0,0,0,5.78-3.5l10.82,12.08a35,35,0,0,1-10.72,6.54,34.21,34.21,0,0,1-12.36,2.38h0A39,39,0,0,1,721,89.71a31.68,31.68,0,0,1-10-5.43A30.17,30.17,0,0,1,705.86,79a32.31,32.31,0,0,1-4.64-8.49A37.17,37.17,0,0,1,699,57.69Z"/><path class="cls-2" d="M731.57,23.81h0C713.76,23.81,699,39,699,57.69h16.22c0-9.81,7.58-17.66,16.33-17.66,7.18,0,12.51,3.7,15.09,9.55l17.85,8.11c0-18.9-13.66-33.88-32.91-33.88"/><path class="cls-3" d="M707.1,49.58A8.11,8.11,0,0,0,699,57.69h0a8.11,8.11,0,1,0,8.11-8.11h0"/><path class="cls-2" d="M746.63,49.58H728.32a8.11,8.11,0,0,0,0,16.22h28Z"/><path class="cls-5" d="M756.37,49.58h-9.74l.06.14a20.13,20.13,0,0,1,1.57,8,8.11,8.11,0,0,0,8.11,8.11h0a8.11,8.11,0,0,0,8.11-8.11h0a8.11,8.11,0,0,0-8.11-8.11"/><path class="cls-1" d="M742.72,76.61a8.11,8.11,0,1,1,8.11,8.11h0A8.11,8.11,0,0,1,742.72,76.61Z"/><path class="cls-1" d="M821.29,27.68c-29.45-10.54-42.77,9.45-42.78,26.22a8.11,8.11,0,0,0,16.22,0h0c0-2.14,1.13-10.54,7.46-12.48,4.14-1.25,9.55.07,13.63,1.53Z"/><circle class="cls-5" cx="818.57" cy="35.32" r="8.11"/><path class="cls-3" d="M793,27.78C783.14,33,778.5,44,778.49,53.9a8.11,8.11,0,0,0,16.22,0h0V32.77a8.09,8.09,0,0,0-1.71-5"/><path class="cls-2" d="M793.19,28a8.11,8.11,0,0,0-14.68,4.76V82h0a8.11,8.11,0,1,0,16.22,0v0h0V32.8A8.1,8.1,0,0,0,793.19,28Z"/><path class="cls-2" d="M958.78,19.25c7.41,0,18.37,13.23-3.5,21.28A8.1,8.1,0,0,0,950,48.14V59.51a8.11,8.11,0,0,0,16.22,0v-6a44.76,44.76,0,0,0,4.73-2.66C997.1,34,980.43,3,959.17,3Z"/><path class="cls-3" d="M958.78,19.25c-8.94,0-11.86,3-14.54,7.84a8.11,8.11,0,1,1-14.18-7.88C935.91,8.7,944.48,3.06,958.72,3Z"/><path class="cls-4" d="M958.83,3a8.11,8.11,0,1,0,8.11,8.11h0A8.11,8.11,0,0,0,958.83,3"/><path class="cls-4" d="M958.08,72.17A8.11,8.11,0,0,0,950,80.28v1.58a8.11,8.11,0,0,0,16.22,0V80.28a8.11,8.11,0,0,0-8.11-8.11"/><path class="cls-5" d="M950,59.51a8.11,8.11,0,1,1,8.11,8.11h0A8.11,8.11,0,0,1,950,59.51Z"/><path class="cls-8" d="M84.08,82a8.11,8.11,0,1,1,8.11,8.11h0A8.11,8.11,0,0,1,84.08,82Z"/></svg>