<svg xmlns="http://www.w3.org/2000/svg" width="887.222" height="849.58" viewBox="0 0 887.222 849.58"><g transform="translate(-1020.613 -2462.5)"><g transform="translate(1584.001 3063.193)"><path d="M1030.61,453.29c0,231.96-188.04,420-420,420s-597.995-271.262-420-420c179.135-149.69,275.342-379.906,420-420C834.144-28.665,1030.61,221.331,1030.61,453.29Z" transform="translate(-706.776 -624.403)" fill="#f2f2f2"/><circle cx="54.315" cy="54.315" r="54.315" transform="translate(-293.907 -150.728)" fill="#f20893"/><path d="M444.723,556.681l13.25,22.95,13.25,22.949h-53l13.25-22.949Z" transform="translate(-222 -816)"/><circle cx="26" cy="26" r="26" transform="translate(-237.277 -162.098)" fill="#009fe3"/><rect width="44" height="44" transform="translate(-40.777 176.587)" fill="#009fe3"/></g><g transform="translate(1017 2651.377)"><path d="M782.009,634.123H524.27v-2.106H782.39Z" fill="#3f3d56"/><path d="M616.828,600.594H606.551l1.835-56.892,27.162,1.468Z" fill="#ffb8b8"/><path d="M827.036,766.229c-3.1,1.416-5.7-10.055-8.317-7.483-7.319,7.193-14.881,8.759-24.651,5.619l-.226-.038a4.575,4.575,0,0,1-2.884-5.962h0a4.575,4.575,0,0,1,3.174-2.832l7.784-1.946,12.222-21.494,12.477-.843h0a29.808,29.808,0,0,1,5.513,25.429C830.995,761.3,829.247,765.22,827.036,766.229Z" transform="translate(-208.805 -132.939)" fill="#2f2e41"/><path d="M714.467,593.074l-9.557,3.78-19.219-53.579,25.8-8.625Z" fill="#ffb8b8"/><path d="M936.6,755.9c-2.364,2.457-9-7.253-10.487-3.9-4.161,9.38-10.617,13.618-20.857,14.291l-.224.048a4.575,4.575,0,0,1-4.875-4.484h0a4.576,4.576,0,0,1,1.91-3.8l6.523-4.672,3.46-24.482,11.292-5.373h0a29.808,29.808,0,0,1,14.479,21.619C938.47,749.861,938.287,754.149,936.6,755.9Z" transform="translate(-208.805 -132.939)" fill="#2f2e41"/><path d="M892.071,451.3l-15.778,4.057a8.258,8.258,0,0,1-10.308-7.68h0a8.258,8.258,0,0,1,8.518-8.571l13.9.448,26.781-9.752-25.313-18.878,2.936-26.427,49.331,39.6a8.2,8.2,0,0,1,3.044,5.806h0a8.2,8.2,0,0,1-6.009,8.487C927.613,447.828,910.773,450.718,892.071,451.3Z" transform="translate(-208.805 -132.939)" fill="#ffb8b8"/><circle cx="25.693" cy="25.693" r="25.693" transform="translate(621.603 167.873)" fill="#ffb8b8"/><path d="M887.667,361.741l-34.5,13.948a46.631,46.631,0,0,0-8.075-30.832l28.629-6.607C873.347,346.994,878.075,354.81,887.667,361.741Z" transform="translate(-208.805 -132.939)" fill="#ffb8b8"/><path d="M893.906,421.569c-27.812,2.226-43.025-1.467-66.435-15.049l8.809-20.554h0a17,17,0,0,1,7-16.278l9.146-6.479,27.9-8.075,1.251.063a15.269,15.269,0,0,1,14.462,14.079C902.1,387.386,902.138,404.893,893.906,421.569Z" transform="translate(-208.805 -132.939)" fill="#009fe3"/><path d="M888.4,464.513l-59.461-6.607-4.4-19.086c-9.763-14.738-5.5-28.237,5.873-41.109,20.733,13.306,39.978,19.056,67.536,14.682C890.615,430.216,883.847,447.733,888.4,464.513Z" transform="translate(-208.805 -132.939)" fill="#2f2e41"/><path d="M934.648,686.942,887.3,684.373,871.884,561.78,859.4,683.638l-56.157-2.569c17.13-80.111,29.031-156.163,25.693-226.1l58.727,5.139c19.9,20.985,29.786,54.485,35.6,94.33S933.776,640.475,934.648,686.942Z" transform="translate(-208.805 -132.939)" fill="#2f2e41"/><circle cx="8.831" cy="8.831" r="8.831" transform="translate(666.749 152.514)" fill="#2f2e41"/><path d="M875.285,292.122a8.824,8.824,0,0,1,8.827-8.254c-.182-.023-.363-.051-.549-.063a8.831,8.831,0,0,0-1.133,17.626c.186.012.369.007.553.008A8.824,8.824,0,0,1,875.285,292.122Z" transform="translate(-208.805 -132.939)" fill="#2f2e41"/><path d="M875.235,295.893c-7.876-6.534-30.467,1.77-31.925,6.163-10.651,1.451-18.715,7.666-18.715,18.715h0c6.332,2.594,13.534,2.274,21.319,0,12.41,10.113,13.261,22.827,5.714,37.429l9.285.186,11.509-16.821.55,17.062,21.283-.427V333.749a51.12,51.12,0,0,0-5.458-23.42C885.481,303.885,880.334,300.123,875.235,295.893Z" transform="translate(-208.805 -132.939)" fill="#2f2e41"/><ellipse cx="4.223" cy="5.912" rx="4.223" ry="5.912" transform="translate(642.388 194.329)" fill="#ffb8b8"/><path d="M823.113,559.928a1.483,1.483,0,0,1,1.483,1.483V620.73a1.483,1.483,0,0,1-1.483,1.483H780.551a1.483,1.483,0,0,1-1.483-1.483V561.411a1.483,1.483,0,0,1,1.483-1.483h42.562" transform="translate(-208.805 -132.939)" fill="#f20893"/><path d="M828.94,537.922l1.437,24.913A10.819,10.819,0,0,1,818,574.162h0c-6.33-.931-6.473-7.121-4.922-13.328l5.912-23.647c14.5-52,18.417-103.036,17.684-152.812a12.5,12.5,0,0,1,12.834-12.714h0a12.491,12.491,0,0,1,12.121,12.927C859.578,443.039,851.053,496.119,828.94,537.922Z" transform="translate(-208.805 -132.939)" fill="#ffb8b8"/></g></g></svg>