<svg xmlns="http://www.w3.org/2000/svg" width="796.612" height="668.986" viewBox="0 0 796.612 668.986"><path d="M565.03,837.074c0,13.046-80.714,23.615-180.452,23.684h-.907c-48.684,0-92.892-2.506-125.469-6.572-1.394-.185-2.769-.361-4.115-.546-5.538-.731-10.716-1.521-15.484-2.34-22.787-3.968-36.291-8.892-36.291-14.226,0-4.32,8.834-8.356,24.269-11.847,8.151-1.843,18.136-3.52,29.641-5q3.174-.424,6.513-.8c32.089-3.754,74.474-6.036,120.935-6.036,9.029,0,17.912.088,26.59.254C497.81,815.32,565.03,825.168,565.03,837.074Z" transform="translate(-92.62 -191.772)" fill="#3f3d56"/><rect width="268.615" height="137.665" transform="translate(527.158 355.076)" fill="#f2f2f2"/><rect width="268.615" height="137.665" transform="translate(193.068 0.839)" fill="#f2f2f2"/><path d="M569.319,224.345H299.025V85H569.319ZM300.7,222.666H567.64V86.679H300.7Z" transform="translate(-106.797 -85)" fill="#6c63ff"/><rect width="268.615" height="137.665" transform="translate(527.158 0.839)" fill="#f2f2f2"/><rect width="268.615" height="137.665" transform="translate(193.068 177.958)" fill="#f2f2f2"/><rect width="268.615" height="137.665" transform="translate(527.158 177.958)" fill="#f2f2f2"/><rect width="268.615" height="137.665" transform="translate(193.068 355.076)" fill="#f2f2f2"/><circle cx="34.416" cy="34.416" r="34.416" transform="translate(0 35.256)" fill="#f2f2f2"/><path d="M221.309,126.311a34.416,34.416,0,1,0,34.416,34.416,34.416,34.416,0,0,0-34.416-34.416Zm14.914,47.2-2.967,2.967L220.89,164.115l-12.367,12.367-2.967-2.967,12.367-12.367L203.877,147.1l2.967-2.967L220.89,158.18l14.046-14.046L237.9,147.1l-14.046,14.046Z" transform="translate(-90.36 -91.056)" fill="#f2f2f2"/><path d="M33.537,92.621,17.71,71.673l3.349-2.531L33.772,85.969,69.428,45.1l3.163,2.759Z" transform="translate(-2.596 -6.612)" fill="#f20893"/><path d="M544.4,648.422q-16.373-2.774-31.492-4.764l3.985-7.726c-1.344-.467-7.247,3.958-7.247,3.958l5.229-22.425c-6.757.815-10.193,23.713-10.193,23.713l-7.55-7.742,3.655,8.7a697.058,697.058,0,0,0-79.9-5.028l3.41-6.612c-1.344-.467-7.247,3.958-7.247,3.958l5.229-22.425c-6.758.815-10.193,23.713-10.193,23.713L404.541,628l3.871,9.218a448.761,448.761,0,0,0-45.931,3.12c3.449-10.3,15.167-20.1,15.167-20.1-8.949,2.662-13.643,7.122-16.1,11.28a180.615,180.615,0,0,1,10.44-62.4s-18.5,40.252-16.137,67.271l.282,4.8c-15.682,2.245-21.851,7.521-21.851,7.521Z" transform="translate(-111.966 -155.965)" fill="#3f3d56"/><circle cx="29.688" cy="29.688" r="29.688" transform="translate(273.876 188.435)" fill="#ff6584"/><path d="M728.4,472.3l-3.48-2.785,19.491-17.4h49.424v15.315l-32.021,21.579Z" transform="translate(-106.263 -66.274)" fill="#3f3d56"/><path d="M809.187,461.874V452.46h-6.562v2.305l-2.449-2.653-16.011,17.4-6.265,4.177-9.714,70.972,14.65,14.65h34.046v-89.1Z" transform="translate(-112.606 -66.274)" fill="#ccc"/><rect width="52.904" height="89.798" transform="translate(618.655 403.241)" fill="#f2f2f2"/><rect width="9.745" height="21.927" transform="translate(639.19 471.112)" fill="#ccc"/><path d="M736.028,558.775v-3.48h-4.177v3.48h4.177Z" transform="translate(-107.279 -81.399)" fill="#3f3d56"/><path d="M735.68,562.636h-3.829v3.48h4.177v-3.48Z" transform="translate(-107.279 -82.475)" fill="#3f3d56"/><rect width="4.177" height="3.481" transform="translate(631.533 473.896)" fill="#3f3d56"/><rect width="4.177" height="3.481" transform="translate(631.533 480.161)" fill="#3f3d56"/><path d="M769.471,558.775v-3.48h-4.177v3.48h4.177Z" transform="translate(-112.182 -81.399)" fill="#3f3d56"/><path d="M769.122,562.636h-3.828v3.48h4.177v-3.48Z" transform="translate(-112.182 -82.475)" fill="#3f3d56"/><rect width="4.177" height="3.481" transform="translate(660.074 473.896)" fill="#3f3d56"/><rect width="4.177" height="3.481" transform="translate(660.074 480.161)" fill="#3f3d56"/><path d="M803.729,477.208v-3.481h-4.177v3.481h4.177Z" transform="translate(-117.204 -69.442)" fill="#3f3d56"/><path d="M803.38,481.069h-3.828v3.48h4.177v-3.48Z" transform="translate(-117.204 -70.518)" fill="#3f3d56"/><rect width="4.177" height="3.481" transform="translate(689.31 404.285)" fill="#3f3d56"/><rect width="4.177" height="3.481" transform="translate(689.31 410.551)" fill="#3f3d56"/><path d="M803.729,500.047v-3.481h-4.177v3.481h4.177Z" transform="translate(-117.204 -72.79)" fill="#3f3d56"/><path d="M803.38,503.907h-3.828v3.481h4.177v-3.481Z" transform="translate(-117.204 -73.866)" fill="#3f3d56"/><rect width="4.177" height="3.481" transform="translate(689.31 423.776)" fill="#3f3d56"/><rect width="4.177" height="3.481" transform="translate(689.31 430.041)" fill="#3f3d56"/><path d="M803.729,522.886v-3.481h-4.177v3.481h4.177Z" transform="translate(-117.204 -76.138)" fill="#3f3d56"/><path d="M803.38,526.746h-3.828v3.481h4.177v-3.481Z" transform="translate(-117.204 -77.214)" fill="#3f3d56"/><rect width="4.177" height="3.481" transform="translate(689.31 443.267)" fill="#3f3d56"/><rect width="4.177" height="3.481" transform="translate(689.31 449.532)" fill="#3f3d56"/><path d="M803.729,545.724v-3.48h-4.177v3.48h4.177Z" transform="translate(-117.204 -79.486)" fill="#3f3d56"/><path d="M803.38,549.585h-3.828v3.481h4.177v-3.481Z" transform="translate(-117.204 -80.562)" fill="#3f3d56"/><rect width="4.177" height="3.481" transform="translate(689.31 462.758)" fill="#3f3d56"/><rect width="4.177" height="3.481" transform="translate(689.31 469.023)" fill="#3f3d56"/><rect width="40.374" height="8.353" transform="translate(624.572 407.766)" fill="#3f3d56"/><rect width="40.374" height="8.353" transform="translate(624.572 424.472)" fill="#3f3d56"/><rect width="40.374" height="8.353" transform="translate(624.572 441.179)" fill="#3f3d56"/><rect width="40.374" height="8.353" transform="translate(624.572 457.885)" fill="#3f3d56"/><path d="M352.754,468.324h35.433v-8.553h19.549v8.553h36.655V506.2H407.736v47.651H388.187V506.2H352.754L334.426,485.43Z" transform="translate(-49.022 -67.396)" fill="#3f3d56"/><path d="M522.974,440.418H521.3a82.264,82.264,0,1,0-164.527,0H355.09a83.942,83.942,0,1,1,167.884,0Z" transform="translate(-115.015 -124.795)" fill="#3f3d56"/><rect width="2.145" height="84.741" transform="matrix(1, -0.002, 0.002, 1, 281.889, 231.265)" fill="#3f3d56"/><path d="M422.621,359.4c.192,29.632-20.61,53.789-20.61,53.789S380.9,389.307,380.7,359.676s20.61-53.789,20.61-53.789S422.429,329.771,422.621,359.4Z" transform="translate(-118.77 -117.379)" fill="#6c63ff"/><path d="M422.621,359.4c.192,29.632-20.61,53.789-20.61,53.789S380.9,389.307,380.7,359.676s20.61-53.789,20.61-53.789S422.429,329.771,422.621,359.4Z" transform="translate(-118.77 -117.379)" opacity="0.1"/><rect width="2.145" height="84.741" transform="matrix(1, -0.002, 0.002, 1, 253.999, 231.318)" fill="#3f3d56"/><path d="M389.941,359.465c.192,29.632-20.61,53.789-20.61,53.789s-21.114-23.885-21.306-53.517,20.61-53.789,20.61-53.789S389.749,329.833,389.941,359.465Z" transform="translate(-113.979 -117.388)" fill="#6c63ff"/><rect width="1.698" height="67.087" transform="translate(397.302 249.094)" fill="#3f3d56"/><path d="M553.98,379.615c.108,23.459-16.4,42.552-16.4,42.552s-16.68-18.941-16.788-42.4,16.4-42.552,16.4-42.552S553.872,356.157,553.98,379.615Z" transform="translate(-139.305 -121.972)" fill="#009fe3"/><circle cx="58.38" cy="58.38" r="58.38" transform="translate(599.268 190.509)" fill="#3f3d56"/><path d="M769.8,266.171v24.438H734.276l-6.564,7.874.749-7.874h-3.193V266.171Z" transform="translate(-106.315 -39.017)" fill="#f20893"/><rect width="16.021" height="16.021" transform="translate(647.465 235.572)" opacity="0.1"/><path d="M762.813,280.171h44.532v24.438h-3.193l.75,7.874-6.563-7.874H762.813Z" transform="translate(-111.818 -41.069)" fill="#009fe3"/><ellipse cx="9.775" cy="0.954" rx="9.775" ry="0.954" transform="translate(611.895 261.5)" opacity="0.1"/><ellipse cx="11.133" cy="1.086" rx="11.133" ry="1.086" transform="translate(681.951 274.129)" opacity="0.1"/><path d="M871.845,106.032H833.268a8.2,8.2,0,0,0-8,6.4l-19.493,86.459a6.628,6.628,0,0,0,6.139,8.078l39.658,1.954a8.756,8.756,0,0,0,9.047-7.187l11.057-61.128.823.235,2.116-11.586-.847-.212,3.086-17.063a5.049,5.049,0,0,0-5.01-5.948Z" transform="translate(-181.056 -88.083)" fill="#3f3d56"/><path d="M839.017,108.216h-4.5a5.667,5.667,0,0,0-5.537,4.459l-18.71,85.754a3.512,3.512,0,0,0,3.2,4.253L853,205.272a4.548,4.548,0,0,0,4.773-3.732l15.965-88.635a3.983,3.983,0,0,0-3.92-4.69h-4.272a1.88,1.88,0,0,0-1.815,1.391h0a1.66,1.66,0,0,1-1.6,1.228h-20.28a2.837,2.837,0,0,1-2.829-2.619Z" transform="translate(-181.726 -88.403)" fill="#009fe3"/><circle cx="55.865" cy="55.865" r="55.865" transform="translate(276.921 13.934)"/><path d="M503.02,195.831c-10.726,0-34.412-11.016-55.478-23.919-26.14-16.011-51.528-36.938-47.09-44.185,1.255-2.048,4.364-2.583,9.507-1.639l-.369,2.008c-3.983-.733-6.679-.477-7.4.7-1.049,1.713,1.264,6.686,10.9,15.505,8.784,8.038,21.4,17.226,35.513,25.873s28.033,15.707,39.183,19.879c12.236,4.579,17.717,4.379,18.765,2.668.72-1.176-.28-3.7-2.746-6.916l1.621-1.241c3.184,4.158,4.121,7.174,2.866,9.223C507.438,195.192,505.605,195.831,503.02,195.831Z" transform="translate(-121.59 -90.957)" fill="#3f3d56"/><circle cx="11.427" cy="11.427" r="11.427" transform="translate(314.464 29.657)" fill="#fff"/><circle cx="7.618" cy="7.618" r="7.618" transform="translate(321.582 96.108)" fill="#fff"/><circle cx="7.618" cy="7.618" r="7.618" transform="translate(347.815 69.992)" fill="#fff"/><path d="M960.793,639.427H690.5V500.082H960.794Zm-268.614-1.68H959.115V501.761H692.179Z" transform="translate(-164.182 -145.845)" fill="#6c63ff"/><path d="M958.824,432.869H688.533V293.525H958.827ZM690.212,431.19H957.148V295.2H690.212Z" transform="translate(-163.893 -115.567)" fill="#6c63ff"/><path d="M297.951,799.478c4.583,16.94,20.279,27.432,20.279,27.432S326.5,809.935,321.915,793s-20.279-27.432-20.279-27.432S293.368,782.537,297.951,799.478Z" transform="translate(-106.436 -184.761)" fill="#3f3d56"/><path d="M300.681,798.758c12.575,12.241,14.111,31.059,14.111,31.059s-18.852-1.029-31.427-13.271-14.111-31.059-14.111-31.059S288.106,786.516,300.681,798.758Z" transform="translate(-102.433 -187.682)" fill="#f20893"/><path d="M354.8,528.407,341.4,529.9s-5.956,26.8,0,62.54,13.4,71.474,13.4,71.474,5.956,116.146,8.934,117.635,29.781,10.423,31.27,1.489S396.493,570.1,396.493,570.1l20.847,98.277s2.978,123.591,8.934,123.591,25.314-1.489,25.314-11.912,4.468-147.416,4.468-147.416-1.489-101.256-7.445-104.233S354.8,528.407,354.8,528.407Z" transform="translate(-112.62 -149.803)" fill="#2f2e41"/><path d="M368,819.9s-13.4-1.489-16.38,0-7.445,11.912,0,17.869,26.8,14.891,32.759,14.891,11.912-2.978,11.912-2.978l-2.978-25.314Z" transform="translate(-113.91 -192.63)" fill="#2f2e41"/><path d="M441.307,826.9l1.489,20.847s19.358,2.978,20.847,0,16.38-10.423,17.869-11.912,2.978-17.869-5.956-19.358-11.912,2.978-11.912,2.978Z" transform="translate(-127.653 -192.18)" fill="#2f2e41"/><path d="M478.818,300.909s32.555-20.935,31.8-35.318-20.379-59.732-20.379-59.732-15.353-31.92-21.457-18.875,8.022,26.931,8.022,26.931l9.117,44.486-24.778,23.638Z" transform="translate(-130.561 -99.49)" fill="#a0616a"/><circle cx="26.803" cy="26.803" r="26.803" transform="translate(240.69 118.02)" fill="#a0616a"/><path d="M371.515,272.274l4.467,28.292,32.759-5.956s-1.489-28.292-1.489-31.27S371.515,272.274,371.515,272.274Z" transform="translate(-117.423 -111.072)" fill="#a0616a"/><path d="M362.864,305.915s37.226-8.934,41.693-5.956,26.8,5.956,26.8,5.956l25.314,38.715-7.445,49.139s-1.489,78.92,1.489,92.321,19.358,14.891-14.891,17.869-40.2-1.489-64.029,4.467-43.182-2.978-37.226-8.934,16.38-101.256,4.467-110.189-16.38-55.095-16.38-55.095S362.864,313.36,362.864,305.915Z" transform="translate(-110.261 -116.421)" fill="#3f3d56"/><path d="M444.8,309.975l4.467-4.467,8.934-8.934s29.036,12.657,27.547,17.124-11.168,30.525-11.168,30.525l-13.4,4.467Z" transform="translate(-128.165 -116.014)" fill="#3f3d56"/><path d="M390.85,215.459l-.275-2.147a16.879,16.879,0,0,0-5.364.843,8.812,8.812,0,0,1,.331-3.858,17.155,17.155,0,0,0-4.965,2.159l-1.083-3.919-14.886,7.336c-5.343,2.633-10.977,5.527-14.032,10.642-3.405,5.7-2.813,13.029-.485,19.249s6.2,11.724,9.3,17.6a43.972,43.972,0,0,0,4.225,7.191c5.619,7,16.556,8.419,24.478,4.192a14.165,14.165,0,0,0,6.783-6.98,45.353,45.353,0,0,0,1.355-5.78c.98-4,2.118-12.265,5.369-14.8,1.431-1.114,4.267,2.58,5.452,1.207,3.047-3.526,2.407-8.964.515-13.223a96.486,96.486,0,0,0-6.352-12.389C400.192,221.186,390.817,215.2,390.85,215.459Z" transform="translate(-114.003 -103.109)" fill="#2f2e41"/><path d="M289.305,382.069s-35.738,34.248-31.271,52.117,40.2,69.985,40.2,69.985,34.248,17.869,38.715,0-23.825-13.4-23.825-13.4l-22.336-53.606,25.314-35.737Z" transform="translate(-100.731 -128.546)" fill="#a0616a"/><path d="M335.157,343.172l-17.869-2.978s-13.4,14.891-17.869,20.847-13.4,20.847-13.4,20.847l31.27,22.336,23.825-25.314Z" transform="translate(-104.89 -122.408)" fill="#3f3d56"/></svg>