<svg id="Flat-design_femme_debout" data-name="Flat-design_femme debout" xmlns="http://www.w3.org/2000/svg" width="289.579" height="398.031" viewBox="0 0 289.579 398.031">
  <ellipse id="Ellipse_29" data-name="Ellipse 29" cx="111.689" cy="14.954" rx="111.689" ry="14.954" transform="translate(66.201 368.123)" fill="#e6e6e6"/>
  <path id="Rectangle_12" data-name="Rectangle 12" d="M0,6Z" transform="translate(0 80.651)" fill="#e6e6e6"/>
  <path id="Rectangle_13" data-name="Rectangle 13" d="M0,40.8Z" transform="translate(6.646 81.226)" fill="#fff"/>
  <g id="Group_15" data-name="Group 15" transform="translate(77.955 0)">
    <path id="Path_257" data-name="Path 257" d="M337.369,388.76h-10.95l-5.207-42.234h16.16Z" transform="translate(-162.143 -17.507)" fill="#ffb8b8"/>
    <path id="Path_258" data-name="Path 258" d="M317.893,387.355h21.117v13.292H304.6A13.293,13.293,0,0,1,317.893,387.355Z" transform="translate(-161.442 -19.231)" fill="#2f2e41"/>
    <path id="Path_259" data-name="Path 259" d="M220.574,388.76h-10.95l-5.207-42.234h16.16Z" transform="translate(-157.212 -17.507)" fill="#ffb8b8"/>
    <path id="Path_260" data-name="Path 260" d="M201.1,387.355h21.117v13.292H187.806A13.293,13.293,0,0,1,201.1,387.355Z" transform="translate(-156.51 -19.231)" fill="#2f2e41"/>
    <path id="Path_261" data-name="Path 261" d="M487.471,242.318v-4.789a30.888,30.888,0,0,1,30.888-30.888h0a30.888,30.888,0,0,1,30.888,30.888v4.789a22.265,22.265,0,0,1-22.265,22.265H509.739a22.265,22.265,0,0,1-22.265-22.265Z" transform="translate(-387.536 -184.344)" fill="#2f2e41"/>
    <ellipse id="Ellipse_36" data-name="Ellipse 36" cx="23.524" cy="23.524" rx="23.524" ry="23.524" transform="translate(107.299 34.841)" fill="#ffb8b8"/>
    <path id="Path_263" data-name="Path 263" d="M386,328.6a8.982,8.982,0,0,1,13.677,1.607l20.166-3.814,5.307,11.689-28.554,4.985A9.03,9.03,0,0,1,386,328.6Z" transform="translate(-383.132 -189.389)" fill="#ffb8b8"/>
    <path id="Path_264" data-name="Path 264" d="M496.565,284.257l.263.4L463.763,306.44l-55.8,17.818a3.36,3.36,0,0,0-2.31,3.581l1.217,10.484a3.353,3.353,0,0,0,4.033,2.891l52.515-11.256a18.97,18.97,0,0,0,7.062-3.109l37.144-26.431a9.553,9.553,0,1,0-10.8-15.76Z" transform="translate(-384.082 -187.553)" fill="#ccc"/>
    <path id="Path_265" data-name="Path 265" d="M549.544,549.515a4.327,4.327,0,0,1-3.964-2.588l-50.2-124.035a1.436,1.436,0,0,0-2.69.151L451.741,543.8a4.311,4.311,0,0,1-5.634,2.769l-13.733-5.151a4.3,4.3,0,0,1-2.775-3.548c-6.179-53.82,47.7-189.667,48.243-191.035l.151-.378,49.112,10.864.1.111c19.594,21.376,35.7,156.2,38.729,183.007a4.289,4.289,0,0,1-2.845,4.546l-12.122,4.287a4.268,4.268,0,0,1-1.426.245Z" transform="translate(-385.072 -190.246)" fill="#2f2e41"/>
    <path id="Path_266" data-name="Path 266" d="M509.327,358.63c-11.9,0-25.165-2.373-29.248-12.164l-.094-.225.127-.209c3.223-5.289,7.483-14.309,5.193-16-4.51-3.335-6.7-8.821-6.5-16.307.422-16.249,11.494-30.677,27.551-35.9h0a122.252,122.252,0,0,1,13.661-3.518,23.256,23.256,0,0,1,19.282,4.762,23.491,23.491,0,0,1,8.712,18.074c.166,17.363-2.5,41.551-16.2,58.155a4.26,4.26,0,0,1-2.522,1.466,117.057,117.057,0,0,1-19.956,1.868Z" transform="translate(-387.17 -187.182)" fill="#ccc"/>
    <path id="Path_267" data-name="Path 267" d="M506.036,360.811a9.153,9.153,0,0,1,11.186-6.383,9.008,9.008,0,0,1,1.387.513l15.311-13.935,10.649,7.174-21.9,19.377a9.139,9.139,0,0,1-10.357,4.393,9,9,0,0,1-6.279-11.14Z" transform="translate(-388.305 -190.017)" fill="#ffb8b8"/>
    <path id="Path_268" data-name="Path 268" d="M532.175,358.552a4.3,4.3,0,0,1-2.728-.976l-6.037-4.933a4.31,4.31,0,0,1,.1-6.758l25.326-19.424a1.44,1.44,0,0,0,.272-2.006L533.48,303.79a12.724,12.724,0,0,1,.85-16.392h0a12.688,12.688,0,0,1,17.132-1.37l.1.1L567.884,309.5a14.551,14.551,0,0,1-.345,23.165l-32.8,25.035a4.32,4.32,0,0,1-2.565.845Z" transform="translate(-388.986 -187.581)" fill="#ccc"/>
    <path id="Path_269" data-name="Path 269" d="M497.965,236.474V224.8l20.838-9.1,19.869,9.1V236.47a1.916,1.916,0,0,1-1.916,1.916H499.881a1.916,1.916,0,0,1-1.916-1.916Z" transform="translate(-387.979 -184.726)" fill="#2f2e41"/>
    <ellipse id="Ellipse_30" data-name="Ellipse 30" cx="13.062" cy="13.062" rx="13.062" ry="13.062" transform="translate(135.588 7.999)" fill="#2f2e41"/>
    <path id="Path_185" data-name="Path 185" d="M895.888,215.943a13.056,13.056,0,0,1,15.619-12.808A13.056,13.056,0,1,0,903.4,227.75a13.051,13.051,0,0,1-7.5-11.807Z" transform="translate(-759.295 -201.89)" fill="#2f2e41"/>
  </g>
</svg>
