<svg xmlns="http://www.w3.org/2000/svg" width="600.573" height="389.075" viewBox="0 0 600.573 389.075"><g transform="translate(-705.165 -3575.912)"><g transform="translate(739.737 3336.674)"><text transform="translate(37 239.238)" font-size="40" font-family="Poppins-Bold, Poppins" font-weight="700"><tspan x="0" y="42">Ajoutez vous même les </tspan><tspan x="0" y="102">jeux !</tspan></text><text transform="translate(37 385.588)" font-size="32" font-family="Oxygen-Light, Oxygen" font-weight="300"><tspan x="0" y="33">Un jeu que vous aimez ne s&apos;y trouve </tspan><tspan x="0" y="74">pas ? Pas de problème, ajoutez-le </tspan><tspan x="0" y="115">grâce à nos fiches de jeux !</tspan></text></g><g transform="translate(705.165 3725.537)"><path d="M-1481-2468h-330.578l-43.529,51.441L-1898.641-2468h-72.025v-168" transform="translate(1980.671 2646.004)" fill="none" stroke="rgba(0,159,227,0.71)" stroke-linecap="round" stroke-linejoin="round" stroke-width="20"/><line x1="415.996" y1="0.024" transform="translate(84.171 178.448)" fill="none" stroke="rgba(108,99,255,0.7)" stroke-linecap="round" stroke-width="20"/><path d="M470.1,575.124a10,10,0,1,0-10,10A10,10,0,0,0,470.1,575.124Z" transform="translate(39.572 -396.978)" fill="#1b1464"/><ellipse cx="10.004" cy="10.004" rx="10.004" ry="10.004" transform="translate(114.803 219.441)" fill="#f20893"/><path d="M1191.108,487.864a10,10,0,1,0-2.928,7.076A10,10,0,0,0,1191.108,487.864Z" transform="translate(-1171.1 -477.86)" fill="#6c63ff"/><path d="M1191.108,487.864a10,10,0,1,0-2.928,7.076A10,10,0,0,0,1191.108,487.864Z" transform="translate(-1011.17 -309.719)" fill="#1b1464"/></g></g></svg>