<svg xmlns="http://www.w3.org/2000/svg" width="540.933" height="380.462" viewBox="0 0 540.933 380.462">
    <g transform="translate(-1056.238 -2319.149)">
        <g transform="translate(183.238 2101.5)">
            <text transform="translate(888 217.649)" font-size="40" font-family="Poppins-Bold, Poppins"
                  font-weight="700">
                <tspan x="0" y="42">...trouvez votre jeu !</tspan>
            </text>
            <text transform="translate(873 315.291)" font-size="32" font-family="Oxygen-Light, Oxygen"
                  font-weight="300">
                <tspan x="0" y="33">Trouvez le jeu qu&apos;il vous faut parmi</tspan>
                <tspan x="0" y="74">une sélection à partir des mots clés</tspan>
                <tspan x="0" y="115">que vous avez recherché !</tspan>
            </text>
        </g>
        <g transform="translate(1087.5 2460.162)">
            <path d="M-1970.667-2468h330.578l43.529,51.441L-1553.03-2468H-1481v-168"
                  transform="translate(1980.671 2646.004)" fill="none" stroke="rgba(0,159,227,0.71)"
                  stroke-linecap="round" stroke-linejoin="round" stroke-width="20"/>
            <line y1="0.024" x2="415.996" transform="translate(9.504 178.448)" fill="none" stroke="rgba(108,99,255,0.7)"
                  stroke-linecap="round" stroke-width="20"/>
            <path d="M450.09,575.124a10,10,0,1,1,10,10A10,10,0,0,1,450.09,575.124Z"
                  transform="translate(-450.09 -396.978)" fill="#1b1464"/>
            <ellipse cx="10.004" cy="10.004" rx="10.004" ry="10.004" transform="translate(374.859 219.441)"
                     fill="#f20893"/>
            <path d="M1171.1,487.864a10,10,0,1,1,2.928,7.076A10,10,0,0,1,1171.1,487.864Z"
                  transform="translate(-681.438 -477.86)" fill="#6c63ff"/>
            <path d="M1171.1,487.864a10,10,0,1,1,2.928,7.076A10,10,0,0,1,1171.1,487.864Z"
                  transform="translate(-841.368 -309.719)" fill="#1b1464"/>
        </g>
    </g>
</svg>