<svg xmlns="http://www.w3.org/2000/svg" width="478.677" height="567.341" viewBox="0 0 478.677 567.341"><g transform="translate(-1188.022 -3373.668)"><g transform="translate(1224.697 3373.668)"><g transform="translate(0 110.802)"><path d="M487.7,468a15.4,15.4,0,0,0,6.75,17.282c2.415,1.407,5.194,2.115,7.534,3.642,5.084,3.313,7.09,9.654,8.741,15.491,1.9,6.71,3.8,13.8,2.061,20.555-1.108,4.306-3.627,8.112-5.059,12.323a25.714,25.714,0,0,0-1.222,10.976,9.363,9.363,0,0,0,2.046,5.458c1.946,2.1,5.079,2.41,7.893,2.914a38.306,38.306,0,0,1,27.54,21.323" transform="translate(-434.363 -333.941)" fill="none" stroke="#535461" stroke-miterlimit="10" stroke-width="2"/><path d="M311.491,382.183H298.28l2.315-7.923h7.923Z" transform="translate(-249.746 -243.833)" fill="#f20893"/><path d="M491.02,254.108c0,30.274-24.541,74.622-54.81,74.622s-54.81-44.353-54.81-74.622a54.813,54.813,0,0,1,109.625,0Z" transform="translate(-381.4 -199.295)" fill="#f20893"/><path d="M306.2,372.269h-7.923l-4.625-2.639h17.172Z" transform="translate(-247.426 -241.513)" fill="#535461"/></g><g transform="translate(154.81 0)"><path d="M630.489,372.4c-5.883,8.24-12,17.044-12.512,27.132-.77,15.5,11.633,28.186,17.171,42.691a50.738,50.738,0,0,1-1.7,39.686c-2.7,5.586-6.556,11.136-6.059,17.322.285,3.775,2.175,7.21,3.7,10.682a60.226,60.226,0,0,1-3.5,54.379" transform="translate(-561.672 -209)" fill="none" stroke="#535461" stroke-miterlimit="10" stroke-width="2"/><path d="M457.994,287.3H441.95l2.811-9.622h9.622Z" transform="translate(-383.009 -119.285)" fill="#009fe3"/><path d="M658.2,169.281c0,36.765-29.8,90.623-66.563,90.623s-66.563-53.864-66.563-90.623a66.566,66.566,0,0,1,133.132,0Z" transform="translate(-525.07 -102.715)" fill="#009fe3"/><path d="M452.558,276.251h-9.622l-5.617-3.211h20.855Z" transform="translate(-381.184 -117.456)" fill="#535461"/></g><g transform="translate(321.21 117.857)"><path d="M761.778,494.28l2.421,19.731c.319,2.622.592,5.48-.814,7.726-1.334,2.117-3.837,3.126-5.784,4.692-6.392,5.151-5.81,14.993-3.605,22.894s5.377,16.389,2.313,23.991c-1.267,3.137-3.5,5.779-5.15,8.725a26.716,26.716,0,0,0-3.193,16.574" transform="translate(-706.421 -356.029)" fill="none" stroke="#535461" stroke-miterlimit="10" stroke-width="2"/><path d="M598.048,409H584.41l2.39-8.184h8.179Z" transform="translate(-534.301 -266.174)"/><path d="M780.691,282.441c0,31.253-25.335,77.036-56.583,77.036s-56.588-45.783-56.588-77.036a56.586,56.586,0,0,1,113.171,0Z" transform="translate(-667.52 -225.855)"/><path d="M592.733,398.915h-8.179l-4.775-2.725h17.728Z" transform="translate(-532.056 -263.929)" fill="#535461"/></g></g><g transform="matrix(0.995, 0.105, -0.105, 0.995, 1211.825, 3664.863)"><rect width="457.38" height="217.035" transform="translate(0.195 12.539)" fill="#e6e6e6"/><rect width="431.223" height="181.079" transform="translate(13.274 31.15)" fill="#fff"/><rect width="11.166" height="11.166" transform="translate(361.216 64.855)" fill="#e6e6e6"/><rect width="11.166" height="11.166" transform="translate(63.37 64.855)" fill="#009fe3"/><rect width="37.222" height="37.222" transform="translate(63.047 96.84)" fill="#e6e6e6"/><path d="M0,0H457.38V19.431H0Z" fill="#009fe3"/><circle cx="3.601" cy="3.601" r="3.601" transform="translate(10.838 10.425)" fill="#fff"/><circle cx="3.601" cy="3.601" r="3.601" transform="translate(24.508 10.425)" fill="#fff"/><circle cx="3.601" cy="3.601" r="3.601" transform="translate(38.178 10.425)" fill="#fff"/><rect width="91.194" height="5.235" transform="translate(138.873 100.563)" fill="#e6e6e6"/><path d="M0,0H140.823V5.235H0Z" transform="translate(138.873 119.659)"/><rect width="114.768" height="5.235" transform="translate(138.873 137.648)" fill="#e6e6e6"/><rect width="67" height="5.235" transform="translate(138.873 155.572)" fill="#e6e6e6"/><rect width="101.12" height="5.235" transform="translate(138.873 173.494)" fill="#e6e6e6"/><rect width="11.166" height="11.166" transform="translate(380.448 64.855)" fill="#e6e6e6"/><rect width="11.166" height="11.166" transform="translate(399.679 64.855)" fill="#e6e6e6"/><circle cx="22.677" cy="22.677" r="22.677" transform="translate(365.49 115.451)" fill="#f20893" opacity="0.997"/></g></g></svg>