<svg xmlns="http://www.w3.org/2000/svg" xmlns:xlink="http://www.w3.org/1999/xlink" width="1817.7" height="913.68" viewBox="0 0 1817.7 913.68"><defs><linearGradient id="a" x1="0.5" y1="1" x2="0.5" gradientUnits="objectBoundingBox"><stop offset="0" stop-color="gray" stop-opacity="0.251"/><stop offset="0.54" stop-color="gray" stop-opacity="0.122"/><stop offset="1" stop-color="gray" stop-opacity="0.102"/></linearGradient><linearGradient id="b" y1="1" y2="-0.001" xlink:href="#a"/><linearGradient id="c" y1="0.999" xlink:href="#a"/><linearGradient id="d" y1="1" xlink:href="#a"/><linearGradient id="e" y1="1" xlink:href="#a"/><linearGradient id="f" y1="1" xlink:href="#a"/><linearGradient id="h" y1="1" xlink:href="#a"/><linearGradient id="i" y1="1.001" xlink:href="#a"/><linearGradient id="k" y1="1" xlink:href="#a"/><linearGradient id="l" y1="1" xlink:href="#a"/><linearGradient id="m" y1="1" xlink:href="#a"/><linearGradient id="n" x1="0.501" y1="1" x2="0.501" xlink:href="#a"/><linearGradient id="q" y1="1" xlink:href="#a"/><linearGradient id="r" y1="1" xlink:href="#a"/><linearGradient id="v" y1="1" xlink:href="#a"/><linearGradient id="x" y1="1" xlink:href="#a"/></defs><g transform="translate(0 55.68)"><path d="M463.68,317.87c0,156.23,130.51,282.87,269.47,282.87s281.39-126.64,281.39-282.87S872.11,35,733.15,35,463.68,161.65,463.68,317.87Z" transform="translate(-302.13 -19)" fill="url(#a)"/><path d="M476.58,317.87c0,148.91,124.4,269.63,256.86,269.63s268.2-120.71,268.2-269.63S865.89,48.24,733.43,48.24,476.58,169,476.58,317.87Z" transform="translate(-302.13 -19)" fill="#6c63ff"/><path d="M667.76,687.58c0-9.41,8.47-17,18.92-17s18.92,7.63,18.92,17c0,7.93-6,14.58-14.19,16.48v13.33h-9.46V704.06C673.79,702.16,667.76,695.52,667.76,687.58Z" transform="translate(-197.27 -19)" fill="url(#b)"/><path d="M652.827,689.71l19.16-19.16.38.38v-.09c2-4.24,5.4-6.86,7.52-5.85s2.2,5.28.17,9.52a16.231,16.231,0,0,1-1.55,2.59l2,2s-49,49-68.14,46.85l-3.61-13.36S625.137,713.13,652.827,689.71Z" transform="translate(-114.197 -19)" fill="url(#c)"/><circle cx="15.76" cy="15.76" r="15.76" transform="translate(474.11 653.4)" fill="#f8c198"/><rect width="7.88" height="15.76" transform="translate(485.93 680.99)" fill="#f8c198"/><rect width="31.52" height="70.93" rx="8" transform="translate(474.11 690.84)" fill="#605b38"/><path d="M613.32,711.27s15.16.54,40.78-21.14l17.73-17.73,7.88,7.88s-45.32,45.32-63,43.35Z" transform="translate(-116.94 -19)" fill="#605b38"/><ellipse cx="3.94" cy="7.88" rx="3.94" ry="7.88" transform="translate(558.982 664.175) rotate(-154.44)" fill="#f8c198"/><circle cx="20.63" cy="20.63" r="20.63" transform="translate(395.94 649.86)" fill="url(#d)"/><circle cx="18.65" cy="18.65" r="18.65" transform="translate(397.92 651.84)" fill="#f8c198"/><rect width="9.33" height="18.65" transform="translate(411.91 684.48)" fill="#f8c198"/><path d="M680.166,713.56h23.1a7.89,7.89,0,0,1,6.44,3.36c17.55,2.28,53.66,5.8,57.32-3.36l1.68,1.26a18.46,18.46,0,0,1,1.23-3.35c2.32-4.84,6.16-7.83,8.58-6.67s2.51,6,.19,10.86a17.3,17.3,0,0,1-3,4.42l1,.77s-36.93,15.55-65.59,13.61v58.67a7.91,7.91,0,0,1-7.89,7.89h-23.1a7.91,7.91,0,0,1-7.89-7.89V721.44a7.91,7.91,0,0,1,7.93-7.88Z" transform="translate(-276.536 -19)" fill="url(#e)"/><rect width="37.3" height="83.93" rx="8" transform="translate(397.93 696.14)" fill="#53ad9b"/><path d="M689.482,717.05s59.45,9.74,64.11-1.92l9.33,7s-44.3,18.65-72.27,11.66S689.482,717.05,689.482,717.05Z" transform="translate(-264.742 -19)" fill="#53ad9b"/><ellipse cx="4.66" cy="9.33" rx="4.66" ry="9.33" transform="translate(496.02 706.556) rotate(-154.44)" fill="#f8c198"/><path d="M790.033,669.35a2.36,2.36,0,0,0-2.34,1.37c-1.92-4.2-6.46-6.77-11-7.36s-9.21.51-13.58,2c-5.59,1.91-11.06,4.55-15.27,8.69s-7,10-6.51,15.87c.38,4.33,2.47,8.3,4.53,12.12,1.27,2.37,2.65,4.83,4.92,6.26,4.74,3,11.46-.17,14-5.16.84-1.65,1.36-3.45,2.29-5,2.81-4.84,8.63-6.82,13.64-9.33C789.473,684.36,790.163,678.24,790.033,669.35Z" transform="translate(-355.233 -19)" fill="url(#f)"/><rect width="168.4" height="145.49" transform="translate(356.01 712.51)" fill="url(#a)"/><rect width="159.59" height="137.92" transform="translate(359.83 712.51)" fill="#f5f5f5"/><line x1="6.66" y1="126.03" transform="translate(355.14 586.48)" fill="none" stroke="#ad7676" stroke-miterlimit="10" stroke-width="2"/><line y1="126.03" x2="9.01" transform="translate(515.48 586.48)" fill="none" stroke="#ad7676" stroke-miterlimit="10" stroke-width="2"/><path d="M758.09,688.55A18.64,18.64,0,0,0,740.86,670c.47,0,.94-.07,1.42-.07a18.65,18.65,0,1,1,0,37.3,9.59,9.59,0,0,1-1.42-.07,18.64,18.64,0,0,0,17.23-18.61Z" transform="translate(-325.7 -19)" fill="#fff" opacity="0.2"/><path d="M687.18,686.66a18.64,18.64,0,0,0-17.25-18.58c.47,0,.94-.07,1.42-.07a18.65,18.65,0,1,1,0,37.3,9.581,9.581,0,0,1-1.42-.07,18.64,18.64,0,0,0,17.25-18.58Z" transform="translate(-183.84 -19)" fill="#fff" opacity="0.2"/><path d="M723.309,701a18.874,18.874,0,0,0-2.82,2.3c-3.35,4.17,3,10.63.62,15.43-1.05,2.12-3.55,3.2-4.67,5.28-2.13,3.95,1.44,9.73-1.65,13-.83.87-2,1.38-2.65,2.4-1.25,2,.5,4.66.22,7-.35,3-3.63,4.6-6.46,5.66-2.41.9-5.57,1.62-7.21-.37-.79-1-.94-2.31-1.68-3.32-1.38-1.89-4.16-1.9-6.19-3.06-3.15-1.8-3.92-6-3.92-9.61s.36-7.55-1.62-10.6c-2.24-3.46-6.89-4.75-9.13-8.21-3.39-5.26.35-12.61-2.07-18.38-.84-2-2.38-3.69-2.88-5.79-.83-3.47,1.39-7,4-9.33s5.87-4.16,8.08-7c1.55-2,2.56-4.35,4.39-6.06,4.44-4.14,11.5-2.66,17.43-4,5.49-1.19,10.55-4.95,16.14-4.32,4.89.55,8.71,4.31,12.12,7.86a6.29,6.29,0,0,1,1.9,2.92c1,4.83-3.69,9.8-5.75,13.34C726.879,690.88,727.689,697.33,723.309,701Z" transform="translate(-230.329 -19)" fill="#fccc63"/><g transform="translate(440.703 643.079)" opacity="0.2"><path d="M733.362,673.79c-3.41-3.55-7.23-7.31-12.12-7.86-5.58-.63-10.65,3.13-16.14,4.32-5.93,1.29-13-.19-17.43,4-1.83,1.71-2.84,4.1-4.39,6.06-2.21,2.79-5.43,4.58-8.08,7a12.9,12.9,0,0,0-3.95,5.88,1.388,1.388,0,0,0-.1-.33c-.83-3.47,1.39-7,4.05-9.33s5.87-4.16,8.08-7c1.55-2,2.56-4.35,4.39-6.06,4.44-4.14,11.5-2.66,17.43-4,5.49-1.19,10.55-4.95,16.14-4.32,4.89.55,8.71,4.31,12.12,7.86a6.29,6.29,0,0,1,1.9,2.92,7.579,7.579,0,0,1-.13,3.32A7.35,7.35,0,0,0,733.362,673.79Z" transform="translate(-670.975 -662.079)" fill="#fff"/><path d="M694.375,743.43a9.29,9.29,0,0,1,.34,3,4.321,4.321,0,0,1-.27,1.08C694.125,746.09,693.775,744.66,694.375,743.43Z" transform="translate(-653.388 -662.079)" fill="#fff"/><path d="M690.446,729.59a18.283,18.283,0,0,1,.12,5,18.731,18.731,0,0,1-.12-5Z" transform="translate(-645.629 -662.079)" fill="#fff"/><path d="M731.519,712.36a46.515,46.515,0,0,1,.17-6.52,46.239,46.239,0,0,1-.17,6.52Z" transform="translate(-727.823 -662.079)" fill="#fff"/><path d="M719.484,736.82v-1.61C719.474,735.75,719.484,736.29,719.484,736.82Z" transform="translate(-703.578 -662.079)" fill="#fff"/><path d="M685.035,708.42c.72,3.15,2.55,6.61,1.65,9.55C685.985,714.68,684.065,711.21,685.035,708.42Z" transform="translate(-636.308 -662.079)" fill="#fff"/></g><path d="M788.665,670.32a2.22,2.22,0,0,0-2.2,1.29c-1.81-4-6.08-6.38-10.4-6.94s-8.68.48-12.8,1.89c-5.27,1.8-10.42,4.29-14.39,8.19s-6.62,9.41-6.13,15c.36,4.08,2.33,7.82,4.27,11.42,1.2,2.23,2.5,4.55,4.64,5.9,4.47,2.81,10.8-.16,13.21-4.86.79-1.55,1.28-3.25,2.16-4.75,2.65-4.56,8.14-6.42,12.85-8.79C788.145,684.48,788.795,678.71,788.665,670.32Z" transform="translate(-355.275 -19)" fill="#263238"/><path d="M788.661,672.22a2.22,2.22,0,0,0-2.2,1.29c-1.81-4-6.08-6.38-10.4-6.94s-8.68.48-12.8,1.89c-5.27,1.8-10.42,4.29-14.39,8.19a20,20,0,0,0-6.15,12.66c-.33-5.41,2.28-10.74,6.15-14.55s9.12-6.39,14.39-8.19c4.12-1.41,8.49-2.45,12.8-1.89s8.59,3,10.4,6.94a2.22,2.22,0,0,1,2.2-1.29v2.36A3.68,3.68,0,0,0,788.661,672.22Z" transform="translate(-355.271 -19)" fill="#fff" opacity="0.2"/><rect width="59.6" height="20.81" transform="translate(412.85 577.96)" fill="#6c63ff"/><g transform="translate(174.44 28.3)" opacity="0.2"><path d="M992.18,47.3c3.16,0,6.31.09,9.47.23-128.86,5.56-247.41,124-247.41,269.4s118.56,263.84,247.41,269.4c-3.16.14-6.32.23-9.47.23-132.45,0-256.86-120.72-256.86-269.63S859.73,47.3,992.18,47.3Z" transform="translate(-735.32 -47.3)"/></g><g transform="translate(421.85 29.24)" opacity="0.2"><path d="M742.89,317.87c0-146.78-131.9-266.17-262.53-269.55,1.89,0,3.78-.08,5.67-.08,132.45,0,268.21,120.76,268.21,269.63S618.48,587.5,486.03,587.5c-1.89,0-3.78,0-5.67-.08C610.98,584,742.89,464.66,742.89,317.87Z" transform="translate(-480.36 -48.24)" fill="#fff"/></g><rect width="171.24" height="55.82" transform="translate(354.19 530.66)" fill="#6c63ff"/><path d="M627.42,67.88s203.4,232.49,0,500l-67.17-.23s185.43-221,8.51-516.55l33.11,7.55Z" transform="translate(-101.98 -19)" fill="#fff" opacity="0.2"/><path d="M850.8,64.33s-203.4,236,0,503.54l67.17-.23S732.54,344.76,909.46,49.2l-33.09,6.61Z" transform="translate(-502.28 -19)" fill="#fff" opacity="0.2"/><path d="M295.73,71.87c0,16.65,14.28,30.13,29.48,30.13S356,88.5,356,71.86s-15.58-30.14-30.79-30.14S295.73,55.23,295.73,71.87Z" transform="translate(524.36 -19)" fill="url(#h)"/><path d="M297.14,71.87c0,15.87,13.61,28.73,28.1,28.73s29.35-12.86,29.35-28.73-14.86-28.73-29.35-28.73S297.14,56,297.14,71.87Z" transform="translate(524.36 -19)" fill="#6c63ff"/><rect width="18.43" height="15.5" transform="translate(841.36 96.95)" fill="url(#i)"/><rect width="17.46" height="14.7" transform="translate(841.78 96.95)" fill="#6c63ff"/><line x1="0.73" y1="13.43" transform="translate(841.27 83.52)" fill="none" stroke="#ad7676" stroke-miterlimit="10" stroke-width="2"/><line y1="13.43" x2="0.99" transform="translate(858.81 83.52)" fill="none" stroke="#ad7676" stroke-miterlimit="10" stroke-width="2"/><g transform="translate(852.37 96.75)" opacity="0.2"><path d="M321.024,117.22a1,1,0,0,1,0,.32.451.451,0,0,1,0,.11.65.65,0,0,1,0-.43Z" transform="translate(-318.304 -115.75)" fill="#fff"/><path d="M320.55,115.75a1.9,1.9,0,0,1,0,.53,1.941,1.941,0,0,1,0-.53Z" transform="translate(-317.38 -115.75)" fill="#fff"/><path d="M323.72,116.52v0Z" transform="translate(-323.72 -115.75)" fill="#fff"/></g><rect width="6.52" height="2.22" transform="translate(847.59 82.62)" fill="#6c63ff"/><g transform="translate(821.5 24)" opacity="0.2"><path d="M353.59,43h1c-14.1.59-27.07,13.22-27.07,28.71s13,28.12,27.07,28.71h-1c-14.49,0-28.1-12.86-28.1-28.73S339.08,43,353.59,43Z" transform="translate(-325.49 -43)"/></g><g transform="translate(848.57 24.15)" opacity="0.2"><path d="M326.27,71.87c0-15.64-14.43-28.36-28.72-28.72h.62c14.49,0,29.35,12.86,29.35,28.73s-14.85,28.73-29.35,28.73h-.62C311.84,100.24,326.27,87.52,326.27,71.87Z" transform="translate(-297.55 -43.15)" fill="#fff"/></g><rect width="18.74" height="5.95" transform="translate(841.16 77.57)" fill="#6c63ff"/><path d="M313.647,45.23s22.26,24.77,0,53.28H306.3s20.29-23.55.93-55l3.62.81Z" transform="translate(546.253 -19)" fill="#fff" opacity="0.2"/><path d="M338.083,44.86s-22.26,25.15,0,53.66h7.35s-20.29-23.75-.93-55.25l-3.62.71Z" transform="translate(502.467 -19)" fill="#fff" opacity="0.2"/><path d="M246.5,116.35c0,19.71,16.47,35.69,34,35.69s35.5-16,35.5-35.69-18-35.69-35.5-35.69S246.5,96.64,246.5,116.35Z" transform="translate(835.73 -133.775)" fill="url(#a)"/><path d="M248.12,116.35c0,18.79,15.69,34,32.41,34s33.84-15.23,33.84-34-17.13-34-33.84-34S248.12,97.56,248.12,116.35Z" transform="translate(835.74 -133.775)" fill="#47e6b1"/><rect width="21.25" height="18.36" transform="translate(1106.76 34.755)" fill="url(#k)"/><rect width="20.13" height="17.4" transform="translate(1107.25 34.755)" fill="#e6e6e6"/><line x1="0.84" y1="15.9" transform="translate(1106.65 18.855)" fill="none" stroke="#ad7676" stroke-miterlimit="10" stroke-width="2"/><line y1="15.9" x2="1.14" transform="translate(1126.88 18.855)" fill="none" stroke="#ad7676" stroke-miterlimit="10" stroke-width="2"/><g transform="translate(1119.45 34.515)" opacity="0.2"><path d="M275.638,170a1.17,1.17,0,0,1,0,.38.54.54,0,0,1,0,.14.79.79,0,0,1,0-.52Z" transform="translate(-272.468 -168.29)" fill="#fff"/><path d="M275.13,168.29a2.309,2.309,0,0,1,0,.63A2.362,2.362,0,0,1,275.13,168.29Z" transform="translate(-271.48 -168.29)" fill="#fff"/><path d="M278.78,169.2v0Z" transform="translate(-278.78 -168.29)" fill="#fff"/></g><rect width="7.52" height="2.63" transform="translate(1113.93 17.785)" fill="#47e6b1"/><g transform="translate(1083.82 -51.565)" opacity="0.2"><path d="M313.22,82.21h1.19c-16.26.7-31.21,15.65-31.21,34s15,33.29,31.21,34h-1.19c-16.71,0-32.41-15.23-32.41-34S296.54,82.21,313.22,82.21Z" transform="translate(-280.81 -82.21)"/></g><g transform="translate(1115.11 -51.425)" opacity="0.2"><path d="M281.68,116.35c0-18.52-16.64-33.58-33.12-34h.72c16.71,0,33.84,15.23,33.84,34s-17.13,34-33.84,34h-.72C265,149.93,281.68,134.87,281.68,116.35Z" transform="translate(-248.56 -82.35)" fill="#fff"/></g><rect width="21.6" height="7.04" transform="translate(1106.54 11.815)" fill="#47e6b1"/><path d="M267.156,84.81s25.66,29.33,0,63.08h-8.47s23.39-27.89,1.07-65.2l4.18,1Z" transform="translate(860.985 -133.775)" fill="#fff" opacity="0.2"/><path d="M295.344,84.36s-25.66,29.78,0,63.53h8.47s-23.39-28.12-1.07-65.41l-4.18.84Z" transform="translate(810.476 -133.775)" fill="#fff" opacity="0.2"/><g transform="translate(258 26.88)"><path d="M10.88,71.82c0,13.92,11.66,25.18,24,25.18S60,85.74,60,71.82,47.31,46.61,34.88,46.61,10.88,57.89,10.88,71.82Z" transform="translate(1105.21 -19)" fill="url(#l)"/><path d="M12,71.82c0,13.27,11.09,24,22.89,24s23.93-10.73,23.93-24-12.1-24-23.9-24S12,58.55,12,71.82Z" transform="translate(1105.27 -19)" fill="#6c63ff"/><rect width="15.01" height="12.96" transform="translate(1133.45 89.68)" fill="url(#m)"/><rect width="14.22" height="12.29" transform="translate(1133.79 89.68)" fill="#6c63ff"/><line x1="0.6" y1="11.24" transform="translate(1133.37 78.44)" fill="none" stroke="#ad7676" stroke-miterlimit="10" stroke-width="2"/><line y1="11.24" x2="0.8" transform="translate(1147.66 78.44)" fill="none" stroke="#ad7676" stroke-miterlimit="10" stroke-width="2"/><g transform="translate(1142.42 89.5)" opacity="0.2"><path d="M31.46,109.74a.83.83,0,0,1,0,.27.38.38,0,0,1,0,.1.56.56,0,0,1,0-.37Z" transform="translate(-29.23 -108.5)" fill="#fff"/><path d="M31.1,108.5a1.63,1.63,0,0,1,0,.44,1.67,1.67,0,0,1,0-.44Z" transform="translate(-28.53 -108.5)" fill="#fff"/><path d="M33.67,109.15v-.1h0Z" transform="translate(-33.67 -108.5)" fill="#fff"/></g><rect width="5.31" height="1.85" transform="translate(1138.52 77.69)" fill="#6c63ff"/><g transform="translate(1117.27 28.7)" opacity="0.2"><path d="M57.98,47.7h.84c-11.48.5-22,11.05-22,24s10.56,23.51,22,24h-.84c-11.8,0-22.89-10.76-22.89-24S46.18,47.7,57.98,47.7Z" transform="translate(-35.09 -47.7)"/></g><g transform="translate(1139.32 28.82)" opacity="0.2"><path d="M35.75,71.82c0-13.08-11.75-23.72-23.39-24h.51c11.8,0,23.9,10.76,23.9,24s-12.1,24-23.9,24h-.51C24,95.53,35.75,84.9,35.75,71.82Z" transform="translate(-12.36 -47.82)" fill="#fff"/></g><rect width="15.26" height="4.97" transform="translate(1133.29 73.47)" fill="#6c63ff"/><path d="M25.482,49.54s18.13,20.72,0,44.56h-6s16.54-19.72.77-46.1l3,.67Z" transform="translate(1123.068 -19)" fill="#fff" opacity="0.2"/><path d="M45.358,49.22s-18.13,21,0,44.87h6s-16.52-19.86-.76-46.2l-3,.59Z" transform="translate(1087.432 -19)" fill="#fff" opacity="0.2"/></g><path d="M427.93,58.82c0,13.92,11.66,25.18,24,25.18S477,72.71,477,58.79s-12.64-25.18-25.07-25.18S427.93,44.89,427.93,58.82Z" transform="translate(271.16 -19)" fill="url(#n)"/><path d="M429,58.82c0,13.27,11.09,24,22.89,24s23.93-10.73,23.93-24-12.1-24-23.9-24S429,45.55,429,58.82Z" transform="translate(271.27 -19)" fill="#009fe3"/><rect width="15.01" height="12.96" transform="translate(716.45 76.68)" fill="url(#m)"/><rect width="14.22" height="12.29" transform="translate(716.79 76.68)" fill="#e6e6e6"/><line x1="0.6" y1="11.24" transform="translate(716.37 65.44)" fill="none" stroke="#ad7676" stroke-miterlimit="10" stroke-width="2"/><line y1="11.24" x2="0.8" transform="translate(730.66 65.44)" fill="none" stroke="#ad7676" stroke-miterlimit="10" stroke-width="2"/><g transform="translate(725.42 76.5)" opacity="0.2"><path d="M448.46,96.74a.831.831,0,0,1,0,.27.378.378,0,0,1,0,.1.56.56,0,0,1,0-.37Z" transform="translate(-446.23 -95.5)" fill="#fff"/><path d="M448.1,95.5a1.629,1.629,0,0,1,0,.44,1.669,1.669,0,0,1,0-.44Z" transform="translate(-445.53 -95.5)" fill="#fff"/><path d="M450.67,96.15v-.1h0Z" transform="translate(-450.67 -95.5)" fill="#fff"/></g><rect width="5.31" height="1.85" transform="translate(721.52 64.69)" fill="#f55f44"/><g transform="translate(700.27 15.7)" opacity="0.2"><path d="M474.98,34.7h.84c-11.48.5-22,11.05-22,24s10.56,23.51,22,24h-.84c-11.8,0-22.89-10.76-22.89-24S463.18,34.7,474.98,34.7Z" transform="translate(-452.09 -34.7)"/></g><g transform="translate(722.32 15.82)" opacity="0.2"><path d="M452.75,58.82c0-13.08-11.75-23.72-23.39-24h.51c11.8,0,23.9,10.76,23.9,24s-12.1,24-23.9,24h-.51C441,82.53,452.75,71.9,452.75,58.82Z" transform="translate(-429.36 -34.82)" fill="#fff"/></g><rect width="15.26" height="4.97" transform="translate(716.29 60.47)" fill="#009fe3"/><path d="M442.482,36.54s18.13,20.72,0,44.56h-6s16.54-19.72.77-46.1l3,.67Z" transform="translate(289.068 -19)" fill="#fff" opacity="0.2"/><path d="M462.358,36.22s-18.13,21,0,44.87h6s-16.52-19.86-.76-46.2l-3,.59Z" transform="translate(253.432 -19)" fill="#fff" opacity="0.2"/><path d="M66.39,250.19c0,20.66,17.26,37.41,35.64,37.41s37.22-16.75,37.22-37.41-18.84-37.41-37.22-37.41S66.39,229.53,66.39,250.19Z" transform="translate(1678.45 -268.46)" fill="url(#a)"/><path d="M68.07,250.19c0,19.7,16.45,35.66,34,35.66s35.47-16,35.47-35.66-18-35.66-35.47-35.66S68.07,230.49,68.07,250.19Z" transform="translate(1678.48 -268.46)" fill="#f55f44"/><rect width="22.27" height="19.24" transform="translate(1770.56 36.44)" fill="url(#q)"/><rect width="21.11" height="18.24" transform="translate(1771.06 36.44)" fill="#e6e6e6"/><line x1="0.88" y1="16.67" transform="translate(1770.45 19.77)" fill="none" stroke="#ad7676" stroke-miterlimit="10" stroke-width="2"/><line y1="16.67" x2="1.19" transform="translate(1791.65 19.77)" fill="none" stroke="#ad7676" stroke-miterlimit="10" stroke-width="2"/><g transform="translate(1783.87 36.18)" opacity="0.2"><path d="M96.929,306.47a1.23,1.23,0,0,1,0,.4.569.569,0,0,1,0,.14A.83.83,0,0,1,96.929,306.47Z" transform="translate(-93.609 -304.64)" fill="#fff"/><path d="M96.4,304.64a2.42,2.42,0,0,1,0,.66A2.48,2.48,0,0,1,96.4,304.64Z" transform="translate(-92.579 -304.64)" fill="#fff"/><path d="M100.22,305.6v0Z" transform="translate(-100.22 -304.64)" fill="#fff"/></g><rect width="7.88" height="2.75" transform="translate(1778.08 18.64)" fill="#f55f44"/><g transform="translate(1746.52 -54.06)" opacity="0.2"><path d="M136.32,214.4h1.25c-17,.74-32.72,16.41-32.72,35.63S120.53,285,137.57,285.7h-1.25c-17.52,0-34-16-34-35.66S118.8,214.4,136.32,214.4Z" transform="translate(-102.32 -214.4)"/></g><g transform="translate(1779.27 -53.92)" opacity="0.2"><path d="M103.32,250.19c0-19.41-17.45-35.2-34.72-35.65h.75c17.52,0,35.47,16,35.47,35.66s-18,35.66-35.47,35.66H68.6C85.88,285.39,103.32,269.6,103.32,250.19Z" transform="translate(-68.6 -214.54)" fill="#fff"/></g><rect width="22.65" height="7.38" transform="translate(1770.32 12.39)" fill="#f55f44"/><path d="M88.044,217.12s26.9,30.75,0,66.13h-8.88s24.52-29.25,1.12-68.35l4.38,1Z" transform="translate(1704.926 -268.46)" fill="#fff" opacity="0.2"/><path d="M117.6,216.66s-26.9,31.22,0,66.6h8.88s-24.53-29.48-1.13-68.57l-4.38.88Z" transform="translate(1651.974 -268.46)" fill="#fff" opacity="0.2"/><path d="M965.5,54.25c0,19.47,16.26,35.25,33.58,35.25s35.06-15.79,35.06-35.25S1016.39,19,999.08,19,965.5,34.78,965.5,54.25Z" transform="translate(-823.55 -19)" fill="url(#r)"/><path d="M967.11,54.25c0,18.55,15.5,33.6,32,33.6s33.42-15,33.42-33.6-16.92-33.6-33.42-33.6S967.11,35.69,967.11,54.25Z" transform="translate(-823.55 -19)" fill="#4d8af0"/><rect width="20.98" height="18.13" transform="translate(166.18 86.79)" fill="url(#a)"/><rect width="19.89" height="17.19" transform="translate(166.65 86.79)" fill="#e6e6e6"/><line x1="0.83" y1="15.71" transform="translate(166.07 71.08)" fill="none" stroke="#ad7676" stroke-miterlimit="10" stroke-width="2"/><line y1="15.71" x2="1.12" transform="translate(186.05 71.08)" fill="none" stroke="#ad7676" stroke-miterlimit="10" stroke-width="2"/><g transform="translate(178.72 86.55)" opacity="0.2"><path d="M994.277,107.27a1.162,1.162,0,0,1,0,.38.535.535,0,0,1,0,.13A.781.781,0,0,1,994.277,107.27Z" transform="translate(-991.157 -105.55)" fill="#fff"/><path d="M993.77,105.55a2.283,2.283,0,0,1,0,.62,2.33,2.33,0,0,1,0-.62Z" transform="translate(-990.17 -105.55)" fill="#fff"/><path d="M997.37,106.45v0Z" transform="translate(-997.37 -105.55)" fill="#fff"/></g><rect width="7.43" height="2.59" transform="translate(173.26 70.02)" fill="#ffcc80"/><g transform="translate(143.56 1.53)" opacity="0.2"><path d="M1031.35,20.53h1.18c-16.06.69-30.83,15.46-30.83,33.57s14.78,32.9,30.83,33.6h-1.18c-16.5,0-32-15-32-33.6S1014.88,20.53,1031.35,20.53Z" transform="translate(-999.35 -20.53)"/></g><g transform="translate(174.38 1.66)" opacity="0.2"><path d="M1000.29,54.25c0-18.29-16.44-33.17-32.71-33.59h.71c16.5,0,33.42,15,33.42,33.6s-16.92,33.6-33.42,33.6h-.71C983.86,87.41,1000.29,72.54,1000.29,54.25Z" transform="translate(-967.58 -20.66)" fill="#fff"/></g><rect width="21.34" height="6.96" transform="translate(165.95 64.13)" fill="#ffcc80"/><path d="M985.908,23.1s25.34,29,0,62.3h-8.37s23.11-27.57,1.07-64.4l4.13.94Z" transform="translate(-798.618 -19)" fill="#fff" opacity="0.2"/><path d="M1013.732,22.65s-25.34,29.41,0,62.74h8.37s-23.11-27.77-1.06-64.6l-4.13.83Z" transform="translate(-848.482 -19)" fill="#fff" opacity="0.2"/><path d="M1100.39,61.19c0,20.66,17.26,37.41,35.64,37.41s37.22-16.75,37.22-37.41-18.84-37.41-37.22-37.41S1100.39,40.53,1100.39,61.19Z" transform="translate(-1097.55 -19)" fill="url(#a)"/><path d="M1102.07,61.19c0,19.7,16.45,35.66,34,35.66s35.47-16,35.47-35.66-18-35.66-35.47-35.66S1102.07,41.49,1102.07,61.19Z" transform="translate(-1097.52 -19)" fill="#6c63ff"/><rect width="22.27" height="19.24" transform="translate(28.56 96.9)" fill="url(#q)"/><rect width="21.11" height="18.24" transform="translate(29.06 96.9)" fill="#6c63ff"/><line x1="0.88" y1="16.67" transform="translate(28.45 80.23)" fill="none" stroke="#ad7676" stroke-miterlimit="10" stroke-width="2"/><line y1="16.67" x2="1.19" transform="translate(49.65 80.23)" fill="none" stroke="#ad7676" stroke-miterlimit="10" stroke-width="2"/><g transform="translate(41.87 96.64)" opacity="0.2"><path d="M1130.929,117.47a1.229,1.229,0,0,1,0,.4.572.572,0,0,1,0,.14.829.829,0,0,1,0-.54Z" transform="translate(-1127.609 -115.64)" fill="#fff"/><path d="M1130.4,115.64a2.419,2.419,0,0,1,0,.66,2.484,2.484,0,0,1,0-.66Z" transform="translate(-1126.579 -115.64)" fill="#fff"/><path d="M1134.22,116.6v0Z" transform="translate(-1134.22 -115.64)" fill="#fff"/></g><rect width="7.88" height="2.75" transform="translate(36.08 79.1)" fill="#6c63ff"/><g transform="translate(4.52 6.4)" opacity="0.2"><path d="M1170.32,25.4h1.25c-17,.74-32.72,16.41-32.72,35.63S1154.53,96,1171.57,96.7h-1.25c-17.52,0-34-16-34-35.66S1152.8,25.4,1170.32,25.4Z" transform="translate(-1136.32 -25.4)"/></g><g transform="translate(37.27 6.54)" opacity="0.2"><path d="M1137.32,61.19c0-19.41-17.45-35.2-34.72-35.65h.75c17.52,0,35.47,16,35.47,35.66s-18,35.66-35.47,35.66h-.75C1119.88,96.39,1137.32,80.6,1137.32,61.19Z" transform="translate(-1102.6 -25.54)" fill="#fff"/></g><rect width="22.65" height="7.38" transform="translate(28.32 72.85)" fill="#6c63ff"/><path d="M1122.045,28.12s26.9,30.75,0,66.13h-8.88s24.52-29.25,1.12-68.35l4.38,1Z" transform="translate(-1071.075 -19)" fill="#fff" opacity="0.2"/><path d="M1151.6,27.66s-26.9,31.22,0,66.6h8.88s-24.53-29.48-1.13-68.57l-4.38.88Z" transform="translate(-1124.026 -19)" fill="#fff" opacity="0.2"/><path d="M1037.59,252.32c0,18.4,15.79,33.32,32.59,33.32s34-14.92,34-33.32-17.23-33.32-34-33.32S1037.59,233.92,1037.59,252.32Z" transform="translate(-965.68 -19)" fill="url(#v)"/><path d="M1039.11,252.32c0,17.54,15,31.76,31.07,31.76s32.44-14.22,32.44-31.76-16.42-31.76-32.44-31.76S1039.11,234.78,1039.11,252.32Z" transform="translate(-965.64 -19)" fill="#009fe3"/><rect width="20.37" height="17.14" transform="translate(95.43 282.05)" fill="url(#k)"/><rect width="19.3" height="16.25" transform="translate(95.9 282.05)" fill="#e6e6e6"/><line x1="0.8" y1="14.85" transform="translate(95.33 267.2)" fill="none" stroke="#ad7676" stroke-miterlimit="10" stroke-width="2"/><line y1="14.85" x2="1.09" transform="translate(114.72 267.2)" fill="none" stroke="#ad7676" stroke-miterlimit="10" stroke-width="2"/><g transform="translate(107.6 281.82)" opacity="0.2"><path d="M1065.488,302.45a1.073,1.073,0,0,1,0,.36.493.493,0,0,1,0,.13A.719.719,0,0,1,1065.488,302.45Z" transform="translate(-1062.458 -300.82)" fill="#fff"/><path d="M1065,300.82a2.1,2.1,0,0,1,0,.59A2.151,2.151,0,0,1,1065,300.82Z" transform="translate(-1061.51 -300.82)" fill="#fff"/><path d="M1068.49,301.68v0Z" transform="translate(-1068.49 -300.82)" fill="#fff"/></g><rect width="7.21" height="2.45" transform="translate(102.3 266.2)" fill="#f55f44"/><g transform="translate(73.47 201.45)" opacity="0.2"><path d="M1101.47,220.45h1.15c-15.59.66-29.92,14.61-29.92,31.74s14.34,31.08,29.92,31.74h-1.15c-16,0-31.07-14.22-31.07-31.76S1085.45,220.45,1101.47,220.45Z" transform="translate(-1070.4 -220.45)"/></g><g transform="translate(103.4 201.57)" opacity="0.2"><path d="M1071.31,252.32c0-17.29-16-31.35-31.75-31.75h.69c16,0,32.44,14.22,32.44,31.76s-16.44,31.76-32.44,31.76h-.69C1055.35,283.68,1071.31,269.61,1071.31,252.32Z" transform="translate(-1039.56 -220.57)" fill="#fff"/></g><rect width="20.71" height="6.58" transform="translate(95.21 260.63)" fill="#009fe3"/><path d="M1057.357,222.87s24.6,27.39,0,58.9h-8.12s22.43-26,1-60.85l4,.89Z" transform="translate(-941.437 -19)" fill="#fff" opacity="0.2"/><path d="M1084.374,222.45s-24.6,27.81,0,59.32h8.12s-22.43-26.26-1-61.07l-4,.78Z" transform="translate(-989.844 -19)" fill="#fff" opacity="0.2"/><path d="M1104.42,455.8c0,20.33,17,36.8,35.06,36.8s36.61-16.48,36.61-36.8-18.53-36.8-36.58-36.8S1104.42,435.48,1104.42,455.8Z" transform="translate(-1104.42 -19)" fill="url(#x)"/><path d="M1106.09,455.8c0,19.37,16.19,35.08,33.42,35.08s34.9-15.71,34.9-35.08-17.66-35.08-34.9-35.08S1106.09,436.43,1106.09,455.8Z" transform="translate(-1104.41 -19)" fill="#f20893"/><rect width="21.91" height="18.93" transform="translate(25.3 490.62)" fill="url(#q)"/><rect width="20.76" height="17.94" transform="translate(25.8 490.62)" fill="#e6e6e6"/><line x1="0.86" y1="16.4" transform="translate(25.19 474.22)" fill="none" stroke="#ad7676" stroke-miterlimit="10" stroke-width="2"/><line y1="16.4" x2="1.17" transform="translate(46.05 474.22)" fill="none" stroke="#ad7676" stroke-miterlimit="10" stroke-width="2"/><g transform="translate(38.39 490.37)" opacity="0.2"><path d="M1134.459,511.17a1.208,1.208,0,0,1,0,.39.56.56,0,0,1,0,.14A.81.81,0,0,1,1134.459,511.17Z" transform="translate(-1131.189 -509.37)" fill="#fff"/><path d="M1133.939,509.37a2.375,2.375,0,0,1,0,.65,2.439,2.439,0,0,1,0-.65Z" transform="translate(-1130.179 -509.37)" fill="#fff"/><path d="M1137.7,510.31v0Z" transform="translate(-1137.7 -509.37)" fill="#fff"/></g><rect width="7.75" height="2.71" transform="translate(32.7 473.12)" fill="#f539a9"/><g transform="translate(1.67 401.6)" opacity="0.2"><path d="M1173.19,420.6h1.23c-16.77.72-32.19,16.14-32.19,35.05s15.42,34.33,32.19,35.05h-1.23c-17.23,0-33.42-15.71-33.42-35.08S1155.97,420.6,1173.19,420.6Z" transform="translate(-1139.77 -420.6)"/></g><g transform="translate(33.87 401.73)" opacity="0.2"><path d="M1140.74,455.8c0-19.1-17.16-34.63-34.16-35.07h.74c17.23,0,34.9,15.71,34.9,35.08s-17.66,35.08-34.9,35.08h-.74C1123.58,490.44,1140.74,474.9,1140.74,455.8Z" transform="translate(-1106.58 -420.73)" fill="#fff"/></g><rect width="22.28" height="7.26" transform="translate(25.07 466.96)" fill="#f20893"/><path d="M1125.72,423.28s26.46,30.25,0,65.05h-8.74s24.13-28.75,1.11-67.21l4.31,1Z" transform="translate(-1078.37 -19)" fill="#fff" opacity="0.2"/><path d="M1154.78,422.82s-26.46,30.71,0,65.52h8.74s-24.13-29-1.11-67.45l-4.31.86Z" transform="translate(-1130.45 -19)" fill="#fff" opacity="0.2"/></g></svg>