<svg xmlns="http://www.w3.org/2000/svg" width="851.499" height="598.841" viewBox="0 0 851.499 598.841"><g transform="translate(0 -0.017)"><path d="M850.533,723.033a46.38,46.38,0,0,1-12.523-1.73L668.8,676.011l.5-1.78,169.214,45.292a44.527,44.527,0,0,0,12.024,1.661c19.914,0,37.576-11.539,42.951-30.708L1013.935,260.92h0l.262-.935a44.646,44.646,0,0,0-30.907-54.929L711.3,128.785a44.646,44.646,0,0,0-54.974,30.895l-9.45,33.709-1.78-.5,9.45-33.709A46.5,46.5,0,0,1,711.8,127l271.991,76.27a46.5,46.5,0,0,1,32.417,56.361l.008,0-.249.89-120.7,430.447C889.666,710.939,871.271,723.033,850.533,723.033Z" transform="translate(-177.654 -125.264)" fill="#2f2e41"/><path d="M518.851,80.177l3.1.869,9.532,2.672,1-3.569-3.569-1,3.134-11.178,7.535-6.546,2.006,21.283-5.547-1.562-1,3.569,14.238,3.994,1-3.569-3.023-.841-2.9-27.015,14.792-12.86,4.151,1.165,1-3.569-14.247-3.994-1,3.569,4.7,1.313L534.929,57.693,540.143,39.1l3.568,1,1-3.569-14.247-3.994-1,3.569,5.344,1.5L523.576,77.653l-5.344-1.5-.139.481-.573,2.071Z" transform="translate(-39.053 -2.454)" fill="#f20893"/><path d="M682.109,244.248a107.985,107.985,0,0,0-10.4,5.187c-.619.351-1.239.712-1.849,1.072V239.071a43.273,43.273,0,0,0-1.729-12.158c.536-.333,1.082-.693,1.618-1.054.49-.324.989-.656,1.479-.989a124.583,124.583,0,0,0,10.882,19.378Z" transform="translate(-179.392 -132.779)" fill="#f20893"/><path d="M726.607,608.227l-4.147-1.163-1,3.561,14.243,3.994,1-3.56-4.691-1.316,18.809-14.789-5.216,18.6-3.56-1-1,3.56,14.243,3.994,1-3.56-5.342-1.5,11.233-40.059,5.342,1.5,1-3.56-14.244-3.994-1,3.56,3.56,1L753.7,584.677l-7.531,6.546-2-21.279,5.546,1.555,1-3.56-14.243-3.994-1,3.561,3.026.849,2.9,27.012Z" transform="translate(-54.443 -42.555)" fill="#f20893"/><path d="M885.315,661.066a101.777,101.777,0,0,0,18.916-10.63,156.258,156.258,0,0,0,10.89,19.377,116.267,116.267,0,0,0-18.916,10.631,125.036,125.036,0,0,0-10.89-19.377Z" transform="translate(-195.781 -164.894)" fill="#f20893"/><path d="M749.892,453.726s-4.677,30.375-6.066,31.906,9.708,37.289,9.708,37.289l35.584-20.748s6.923-38.387,9.2-39.668S749.892,453.726,749.892,453.726Z" transform="translate(-185.095 -150.049)" fill="#ffb8b8"/><path d="M749.892,453.726s-4.677,30.375-6.066,31.906,9.708,37.289,9.708,37.289l35.584-20.748s6.923-38.387,9.2-39.668S749.892,453.726,749.892,453.726Z" transform="translate(-185.095 -150.049)" opacity="0.1"/><circle cx="35.132" cy="35.132" r="35.132" transform="translate(557.195 262.821)" fill="#ffb8b8"/><path d="M758.567,504.438l-3.061-2.779-13.762-19.586s-1.579-1.039-3.077,4.3l-1.5,5.341-12.929,5.016L695.632,619.3l76.557,21.468,31.528-122.706-14.809-15.675-1.64-7.562-22.862,9.333Z" transform="translate(-181.467 -152.182)" fill="#fff"/><path d="M670,631.846l1.849.518L791.077,665.8,830.943,533.91s-9.43-7.452-16.808-8.561c0,0-12.389-14.034-17.723-15.532s-11.252-14.672-11.252-14.672S778.92,517.4,768.2,531.673s-29.4,63.775-29.4,63.775l-5.27-90.78,5.917-22.827a42.039,42.039,0,0,0-9.3,7.48c-4.17,4.586-14.811,8.321-14.811,8.321s-28.032,7.507-32.987,8.044a20.421,20.421,0,0,0-7.23,1.812l-3.264,22.457L670,542.675Z" transform="translate(-179.533 -152.171)" fill="#2f2e41"/><path d="M686.272,582.813c-1.109,7.369-12.518,37.777-12.518,37.777l-1.9,1.914L670,624.362V511.744a5.194,5.194,0,0,1,1.849-1.285,12.683,12.683,0,0,1,3.264-.869l3.569,1S687.381,575.436,686.272,582.813Z" transform="translate(-179.533 -154.265)" fill="#2f2e41"/><path d="M775.443,629.018s17.5-31.581,30.742-24.026-7.988,28.486-7.988,28.486Z" transform="translate(-187.49 -161.376)" fill="#ffb8b8"/><path d="M713.426,617.1s-33.578-10.376-34.327-7.706-9.943,18.336-7.272,19.085,23.395,5.6,23.145,6.49,9.933,5.666,9.933,5.666Z" transform="translate(-179.634 -161.763)" fill="#ffb8b8"/><path d="M644.121,383.49l-21.371.84-4.451-1.248-17.819-11.829-5.9,17.66,22.472-1.38,4.451,1.248,18.478,12.863Z" transform="translate(-44.868 -28.014)" fill="#f20893"/><path d="M581.858,526.261l-3.282,6.99-47.152-12.944-.924-2.69V502.8l1.849.721,1.9.749Z" transform="translate(-40.033 -37.941)" fill="#2f2e41"/><path d="M725.541,620.388s-11.073-5.025-11.323-4.135-15.109,26.489-11.549,27.488,16.165,7.414,16.165,7.414Z" transform="translate(-181.957 -162.306)" fill="#fff"/><path d="M828.2,536.261l6.231,1.748s3.561,1,3.843,6.839,5.115,33.121,2.836,34.4-2.92.141-1.639,2.421,2.421,1.639,1.032,3.17-4.578,50.567-14.911,66.873-13.47,24.069-17.031,23.07l-92.3-25.881s4.11-36.3,7.92-36.187,66.233,13.771,66.233,13.771S814.6,533.407,828.2,536.261Z" transform="translate(-183.024 -156.273)" fill="#2f2e41"/><path d="M756.031,404.733l-5.764-4.134s17.184-9.657,35.529-3.254l-3.779-6.724s14.146-1.068,22.38,14.458c4.328,8.162,9.3,17.724,11.336,27.493l6.874,1.927-4.478,4.933,8.432,8.553-10.017-3.921a30.07,30.07,0,0,1-5.142,14.587l-4.134,5.764s-4.1-21.29-3.446-23.624l-1.636,5.835s-4.946-7.051-3.964-10.552l-4.646,3.1.049-6.909-23.389.364,4.974-4.27L761.3,426.35l7.051-4.946s-17.3,3.331-19.682,9.586-12.259,12.3-12.259,12.3l-1.865-6.817S736.656,408.741,756.031,404.733Z" transform="translate(-184.404 -145.286)" fill="#2f2e41"/><path d="M743.237,414.627l.275-1.2c2.671-11.631-17.879-33.261-18.087-33.478l-.365-.381.142-.508c.407-1.45,2.038-2.738,16.327.359,5.564,1.206,11.112,2.676,13.435,3.306-.259-6.641-8.492-15.44-8.579-15.533l-1.036-1.1,1.448-.425c9.491-2.782,20.6,6.445,24.149,9.712l5.934-21.162,11.743,17.345c7.209-10.791,17.636-10.354,18.092-10.329l1.464.08-.7,1.287c-4.94,9.038-5.83,14.974-5.881,17.9,13.143-15.615,24.987-14.254,25.5-14.186l1.795.237-1.245,1.315c-17.206,18.181-19.232,42.165-19.251,42.4l-.062.808Zm-15.764-35.194c3.633,3.938,19.345,21.709,18.044,33.217l61.121-3.325c.5-4.278,3.6-24.637,18.218-41.142-3.983.356-13.378,2.626-23.275,15.275l-1.135,1.449-.486-1.775c-.076-.28-1.731-6.782,5.134-19.991-3.147.3-10.474,1.945-15.652,10.59l-.745,1.244-11.113-16.414-5.7,20.34-1.119-1.133c-.125-.126-12.048-12.064-21.961-10.641,2.545,2.963,8.633,10.767,7.966,16.9l-.118,1.085-1.051-.295C743.923,381.547,730.588,378.753,727.473,379.433Z" transform="translate(-183.688 -142.541)" fill="#f20893"/><path d="M840.21,361.508a3.316,3.316,0,1,1,4.088-2.3,3.316,3.316,0,0,1-4.088,2.3ZM841.5,356.9a1.467,1.467,0,1,0,1.016,1.809A1.467,1.467,0,0,0,841.5,356.9Z" transform="translate(-192.195 -142.599)" fill="#f20893"/><path d="M815.3,354.524a3.316,3.316,0,1,1,4.088-2.3A3.316,3.316,0,0,1,815.3,354.524Zm1.291-4.606a1.467,1.467,0,1,0,1.016,1.809,1.467,1.467,0,0,0-1.016-1.809Z" transform="translate(-190.315 -142.072)" fill="#f20893"/><path d="M777.438,350.623a3.316,3.316,0,1,1,4.088-2.3A3.316,3.316,0,0,1,777.438,350.623Zm1.292-4.606a1.467,1.467,0,1,0,1.016,1.809,1.467,1.467,0,0,0-1.016-1.809Z" transform="translate(-187.458 -141.778)" fill="#f20893"/><path d="M716.991,379.348a3.316,3.316,0,1,1,4.089-2.3,3.316,3.316,0,0,1-4.089,2.3Zm1.292-4.606a1.467,1.467,0,1,0,1.016,1.809,1.467,1.467,0,0,0-1.016-1.809Z" transform="translate(-182.896 -143.945)" fill="#f20893"/><path d="M740.365,363.064a3.316,3.316,0,1,1,4.089-2.3A3.316,3.316,0,0,1,740.365,363.064Zm1.291-4.606a1.467,1.467,0,1,0,1.017,1.809,1.467,1.467,0,0,0-1.017-1.809Z" transform="translate(-184.66 -142.716)" fill="#f20893"/><path d="M705.975,537.292l-.89-.25L530.809,488.174l.5-1.781,173.387,48.621,109.586-390.8L569.92,75.694,532.649,208.61l-1.781-.5,37.772-134.7.888.25,247.031,69.271-.25.889Z" transform="translate(-40.056 -5.539)" fill="#2f2e41"/><path d="M180.548,735.3c11.491,21.31,35.878,30.458,35.878,30.458s5.757-25.4-5.733-46.712-35.878-30.457-35.878-30.457S169.058,713.995,180.548,735.3Z" transform="translate(-142.056 -167.773)" fill="#2f2e41"/><path d="M185.891,730.821c20.745,12.481,28.735,37.272,28.735,37.272s-25.645,4.555-46.39-7.926S139.5,722.895,139.5,722.895,165.145,718.339,185.891,730.821Z" transform="translate(-139.5 -170.3)" fill="#009fe3"/><path d="M639.553,223.3a45.3,45.3,0,0,0-7.461-14.487,45.993,45.993,0,0,0-3.855-4.41A45.4,45.4,0,0,0,596,191H313.515A45.561,45.561,0,0,0,268,236.515V683.566a45.561,45.561,0,0,0,45.515,45.515H596a45.561,45.561,0,0,0,45.515-45.515V236.515a45.186,45.186,0,0,0-1.96-13.212Zm.111,460.263A43.719,43.719,0,0,1,596,727.232H313.515a43.719,43.719,0,0,1-43.666-43.666V236.515a43.719,43.719,0,0,1,43.666-43.666H596a43.557,43.557,0,0,1,31.665,13.628q.68.721,1.331,1.47a43.565,43.565,0,0,1,10.669,28.568Z" transform="translate(-149.197 -130.223)" fill="#2f2e41"/><path d="M313.423,265.618c-.051-.121-.115-.23-.171-.346a28.008,28.008,0,0,0,3.064-13.191c0-14.332-8.956-24.341-21.779-24.341s-21.779,10.01-21.779,24.341,8.956,24.341,21.779,24.341a20.549,20.549,0,0,0,15.99-7.141c4.106,6.644,12.043,7.521,12.409,7.557l.433-4.249C323.07,272.558,316.025,271.733,313.423,265.618Zm-18.886,6.534c-10.309,0-17.509-8.253-17.509-20.071s7.2-20.071,17.509-20.071,17.509,8.253,17.509,20.071a24.125,24.125,0,0,1-1.951,9.806c-6.374-3.873-18.233-1.559-19.841-1.219l.878,4.179c4.356-.912,13.021-1.644,16.794.723a16.335,16.335,0,0,1-13.389,6.581Z" transform="translate(-149.556 -132.996)" fill="#009fe3"/><path d="M296.968,291.2a7.409,7.409,0,0,0-10.478,10.478l10.478,10.478,10.478-10.478A7.409,7.409,0,0,0,296.968,291.2Z" transform="translate(-150.428 -137.621)" fill="#009fe3"/><path d="M622.446,697.472c.051.121.115.23.171.346a28.009,28.009,0,0,0-3.065,13.192c0,14.332,8.956,24.341,21.779,24.341s21.779-10.009,21.779-24.341-8.956-24.341-21.779-24.341a20.548,20.548,0,0,0-15.99,7.14c-4.106-6.644-12.043-7.521-12.409-7.557L612.5,690.5C612.8,690.531,619.844,691.356,622.446,697.472Zm18.886-6.534c10.309,0,17.509,8.254,17.509,20.071s-7.2,20.071-17.509,20.071-17.509-8.254-17.509-20.071a24.123,24.123,0,0,1,1.951-9.806c6.374,3.872,18.233,1.558,19.841,1.219l-.878-4.179c-4.356.912-13.022,1.644-16.794-.723a16.336,16.336,0,0,1,13.389-6.582Z" transform="translate(-175.194 -167.596)" fill="#009fe3"/><path d="M640.968,674a7.409,7.409,0,1,0,10.478-10.478l-10.478-10.478L630.49,663.527A7.409,7.409,0,1,0,640.968,674Z" transform="translate(-176.388 -165.091)" fill="#009fe3"/><path d="M486.718,463.888c-12.587-21.268-37.489-22.259-37.489-22.259s-24.266-3.1-39.832,29.288c-14.509,30.191-34.533,59.341-3.224,66.409l5.655-17.6,3.5,18.912a122.526,122.526,0,0,0,13.4.229c33.53-1.083,65.462.317,64.434-11.715C491.8,511.156,498.829,484.351,486.718,463.888Z" transform="translate(-158.373 -149.13)" fill="#2f2e41"/><path d="M443.03,541.747c.061,2.394.043,4.919-1.147,7-2.358,4.12-8.115,4.737-11.578,7.984-3.642,3.415-4.054,8.957-4.227,13.947-.181,5.216-.335,10.6,1.568,15.463a37.6,37.6,0,0,0,4.392,7.545q3.171,4.571,6.4,9.1a39.291,39.291,0,0,0,3.833,4.81c3.856,3.928,9.146,6.1,14.427,7.654,3.412,1,7.1,1.783,10.483.694a20.075,20.075,0,0,0,6.1-3.748,32.667,32.667,0,0,0,6.9-6.688c2.843-4.124,3.63-9.287,4.219-14.261a307.741,307.741,0,0,0,2.029-44.333,10.863,10.863,0,0,0-.846-4.71c-1.754-3.424-6.45-4.155-8.924-7.1-2.116-2.518-2.2-6.112-2.184-9.4l.046-8.372a3.508,3.508,0,0,0-.407-2.04,3.456,3.456,0,0,0-2.4-1.121,80.963,80.963,0,0,0-15.752-1.054c-4.275.131-12.476-.227-16.172,2.154-3.355,2.161.846,8.13,1.623,11.482A74.8,74.8,0,0,1,443.03,541.747Z" transform="translate(-161.118 -154.528)" fill="#a0616a"/><circle cx="33.841" cy="33.841" r="33.841" transform="translate(257.882 305.158)" fill="#a0616a"/><path d="M437.4,580.716a49.509,49.509,0,0,1-5.278-10.25,16.644,16.644,0,0,1-.092-11.32c-3.657-2.122-8.622-.4-11.285,2.88s-3.478,7.686-3.713,11.907.014,8.505-.9,12.632c-2.033,9.13-9.575,16.637-10.136,25.974-.552,9.186,5.747,17.188,8.846,25.853a43.114,43.114,0,0,1,2.31,16.828c-.1,1.842-.216,3.942,1.084,5.251a5.988,5.988,0,0,0,2.342,1.262c14.953,5.261,31.1,5.716,46.951,6.117l26.173.663a8.343,8.343,0,0,0,4.622-.774c2.348-1.44,2.662-4.667,2.7-7.421.344-23.72-.665-47.437-1.674-71.139-.366-8.59-.737-17.231-2.559-25.634-.464-2.14-1.224-4.519-3.2-5.464-1.672-.8-3.656-.282-5.394.36a42.952,42.952,0,0,0-20.116,15.485c-5.37,7.643-8.012,16.812-13.268,24.514-3.814,5.589-6.02.718-8.561-3.4Q441.823,587.879,437.4,580.716Z" transform="translate(-159.607 -157.893)" fill="#fff"/><path d="M431.338,558.653c-.666.471-1.322.971-1.951,1.5a37.764,37.764,0,0,0-6.287,6.62,52.445,52.445,0,0,0-7.119,13.433c-3.069,8.413-4.4,17.344-5.677,26.2a63.248,63.248,0,0,0-.9,9.874c.194,12.167,7.387,23.437,7.4,35.613,0,.462-.009.915-.037,1.378a39.984,39.984,0,0,1-.7,5.935c-.527,2.857-1.285,5.677-2.034,8.487-1.886,7.045-3.92,14.349-7.6,20.534-.37.629-.767,1.248-1.174,1.849H379.37c.2-.62.416-1.23.619-1.849q6.615-19.6,13.221-39.182c1.35-3.994,2.7-8.006,3.652-12.111a114.7,114.7,0,0,0,2.228-15.375q1.526-16.073,2.006-32.211c.12-3.865.2-7.812,1.451-11.473a37.537,37.537,0,0,1,4.6-8.4l8.016-12.065c1.489-2.237,3.051-4.539,5.344-5.935,1.914-1.174,4.188-1.6,6.2-2.589a31.746,31.746,0,0,0,3.643-2.413c3.014-2.136,6.555-4.383,9.153-2.2a5.1,5.1,0,0,1,1.072,1.229,6.192,6.192,0,0,1,.4.712C443.477,551.617,434.694,556.277,431.338,558.653Z" transform="translate(-157.601 -156.815)" fill="#2f2e41"/><path d="M518.034,699.042H398.14c.647-.592,1.285-1.211,1.9-1.849.092-.092.176-.185.268-.277,4.586-4.761,5.63-10.614,7.932-16.808q2.593-7,5.187-14a7.238,7.238,0,0,1,1.322-2.487,4.1,4.1,0,0,1,1.822-1.091,7.055,7.055,0,0,1,1.609-.3,18.018,18.018,0,0,1,2.339,0q32.271,1.664,64.5,4.059l8.321.638c2.265,1.683,4.5,3.467,6.638,5.353,6.943,6.1,12.962,13.286,16.411,21.773.416,1.026.8,2.071,1.109,3.134C517.7,697.8,517.877,698.422,518.034,699.042Z" transform="translate(-159.018 -165.781)" fill="#2f2e41"/><path d="M343.772,337.178l-24.6-12.887L285.2,329.563l-7.029,31.046,17.5-.673,4.888-11.406v11.217l8.074-.311,4.686-18.158,2.929,19.33,28.7-.586Z" transform="translate(-20.991 -24.47)" fill="#2f2e41"/><path d="M523.8,689.685h-27.07c-.194-.61-.379-1.23-.555-1.849a145.4,145.4,0,0,1-4.2-20.969c-.287-2.025-.536-4.059-.767-6.084-.148-1.285-.287-2.561-.425-3.846-1.553-14.275-2.746-28.689-7.11-42.353-.527-1.655-1.1-3.3-1.655-4.946a58.366,58.366,0,0,1-2.4-8.7c-1.184-6.768-.3-13.776-1.516-20.534-.684-3.772-2.043-7.091-2.866-10.549a21.363,21.363,0,0,1-.61-6.388,13.76,13.76,0,0,1,7.2-3.569,3.8,3.8,0,0,0,2.552-1.026,3.205,3.205,0,0,0,.425-1.886,90.577,90.577,0,0,0-.749-13.045c-.185-1.516-.416-3.032-.693-4.539-.009-.074-.028-.139-.037-.213a17.911,17.911,0,0,1,7.248-.98c2.672.009,5.335.009,8,.018q7.391.028,14.783.046c4.586.009,9.329.055,13.5,1.951,4.308,1.969,7.581,5.769,9.745,9.985a57.476,57.476,0,0,1,4.4,13.47,18.066,18.066,0,0,1,.462,3.892c.2,10.41-7.563,20.895-8.339,31.536-.25,3.449.037,6.925-.277,10.374s-1.239,6.842-1.405,10.3c-.009.176-.018.361-.018.536-.1,4.5,1.211,8.913,2.727,13.156,2.348,6.592,5.205,12.981,8.154,19.332,2.847,6.148,5.769,12.268,8.395,18.5a31.678,31.678,0,0,1,2.727,9.144,12.69,12.69,0,0,1-1.4,7.387,8.655,8.655,0,0,1-1.1,1.562l-.019.019c-.083.092-.166.185-.25.268H523.8Z" transform="translate(-164.787 -156.424)" fill="#2f2e41"/><path d="M554.165,691.248a10.243,10.243,0,0,1-.989,3.541c-.046.111-.092.213-.139.323-.536,1.267-1.082,2.515-1.646,3.772-.277.61-.555,1.229-.841,1.849H535.24a17.146,17.146,0,0,0,1.535-1.849c2.348-3.264,3.707-7.23,6.1-10.753A8.269,8.269,0,0,1,544,686.8C547.832,683.084,554.406,683.843,554.165,691.248Z" transform="translate(-169.364 -167.473)" fill="#ffb8b8"/><path d="M563.127,690.8a18.024,18.024,0,0,0,.49-1.849c.111-.49.2-.971.277-1.461.49-3.227.481-6.527,1.248-9.7,1.082-4.54,4.327-9.911,1.655-13.729a14.509,14.509,0,0,0,5.741-2.571c1.59-1.387,2.515-3.79,1.553-5.677-.952-1.858-3.532-3.088-3.18-5.15a4.909,4.909,0,0,1,.906-1.794,13.433,13.433,0,0,0-.231-14.737c-.841-1.2-1.877-2.256-2.644-3.513a20.967,20.967,0,0,1-1.914-4.872,90.761,90.761,0,0,0-11.677-24.2,16.067,16.067,0,0,1-2.58-4.771,19.7,19.7,0,0,1-.2-5.667c.185-7.47-2.607-14.765-6.629-21.052-.3-.462-.6-.915-.906-1.368-3.883-5.723-8.7-10.743-13.5-15.727-1.979.925-3.726,1.526-4.752,3.448a10.247,10.247,0,0,0-.915,3.439c-1.313,9.153-2.45,18.361-3.338,27.561a67.374,67.374,0,0,0-.37,13.979c.527,4.641,2.108,9.291,5.251,12.74,1.969,2.164,4.466,3.772,6.6,5.769q.513.486,1,1a32.728,32.728,0,0,1,4.077,5.353,46.152,46.152,0,0,1,6.786,27.671,45.03,45.03,0,0,1-.693,5.214,21.565,21.565,0,0,1-2.459,7.026c-.971,1.6-2.247,3-3.125,4.651a5.881,5.881,0,0,0-.425,5.371,10.947,10.947,0,0,1,3.818.684,16.208,16.208,0,0,1,7.211,5.5,23.974,23.974,0,0,1,1.83,2.811,34.631,34.631,0,0,1,1.831,3.772c.222.509.435,1.036.638,1.563a1.524,1.524,0,0,1,.111.286Z" transform="translate(-168.359 -157.538)" fill="#2f2e41"/><path d="M341.55,402.805l-19.6,8.55-4.6.455-20.9-4.543.922,18.6,20.432-9.453,4.6-.455,21.889,5.266Z" transform="translate(-22.371 -30.395)" fill="#009fe3"/><path d="M512.45,666.921c.2.61.379,1.23.536,1.849h6.86a17.135,17.135,0,0,0,1.535-1.849ZM331.25,261.049V668.77H586.885V261.049ZM585.036,666.921H333.1V262.9H585.036Zm-72.586,0c.2.61.379,1.23.536,1.849h6.86a17.135,17.135,0,0,0,1.535-1.849Z" transform="translate(-153.97 -135.509)" fill="#2f2e41"/><path d="M421.467,450.029l.159-.795c.047-.236,4.572-23.876-7.087-46.027l-.843-1.6,1.792.256c.515.073,12.286,1.962,20.725,20.545.741-2.832,1.487-8.788-.83-18.824l-.33-1.429,1.431.318c.446.1,10.6,2.493,14.631,14.831l15.99-13.53v21.978c4.3-2.187,17.487-8.072,25.874-2.831l1.279.8-1.293.777c-.11.066-10.412,6.315-12.455,12.639,2.407.02,8.146.1,13.828.444,14.595.876,15.817,2.556,15.817,4.062v.528l-.454.268c-.259.153-25.886,15.431-26.454,27.351l-.059,1.227Zm57.869-11.05h-1.091l.18-1.077c1.014-6.088,8.984-11.958,12.234-14.124-9.161-4.047-23.864,4.228-24.019,4.316l-1.383.79V407.76l-15.132,12.8-.382-1.4c-2.652-9.722-9.262-13.286-12.211-14.422,3.043,14.572-.306,20.386-.455,20.634l-.947,1.578-.7-1.7c-6.115-14.851-14.548-19.574-18.287-20.992,9.615,19.838,7.1,40.277,6.433,44.533l57.953,19.7c1.854-11.432,21.78-24.3,26.342-27.112-2.816-1.5-16.41-2.407-28.536-2.407Z" transform="translate(-160.191 -146.116)" fill="#009fe3"/><path d="M408.671,391.606a3.316,3.316,0,1,1,3.316,3.316A3.316,3.316,0,0,1,408.671,391.606Zm1.849,0a1.467,1.467,0,1,0,1.467-1.467A1.467,1.467,0,0,0,410.52,391.606Z" transform="translate(-159.812 -145.111)" fill="#009fe3"/><path d="M434.541,391.606a3.316,3.316,0,1,1,3.316,3.316A3.316,3.316,0,0,1,434.541,391.606Zm1.849,0a1.467,1.467,0,1,0,1.467-1.467A1.467,1.467,0,0,0,436.39,391.606Z" transform="translate(-161.764 -145.111)" fill="#009fe3"/><path d="M472.052,398.074a3.316,3.316,0,1,1,3.316,3.316,3.316,3.316,0,0,1-3.316-3.316Zm1.849,0a1.467,1.467,0,1,0,1.467-1.467A1.467,1.467,0,0,0,473.9,398.074Z" transform="translate(-164.595 -145.599)" fill="#009fe3"/><path d="M522.5,442.052a3.316,3.316,0,1,1,3.316,3.316A3.316,3.316,0,0,1,522.5,442.052Zm1.849,0a1.467,1.467,0,1,0,1.467-1.467A1.467,1.467,0,0,0,524.347,442.052Z" transform="translate(-168.402 -148.918)" fill="#009fe3"/><path d="M504.389,420.063a3.316,3.316,0,1,1,3.316,3.316A3.317,3.317,0,0,1,504.389,420.063Zm1.849,0a1.467,1.467,0,1,0,1.467-1.467A1.468,1.468,0,0,0,506.238,420.063Z" transform="translate(-167.035 -147.259)" fill="#009fe3"/><rect width="840.405" height="1.849" transform="translate(11.094 596.591)" fill="#3f3d56"/></g></svg>